<?xml version="1.0" encoding="UTF-8" standalone="no"?>
<!-- Created with Inkscape (http://www.inkscape.org/) -->

<svg
   width="52.916664mm"
   height="52.916672mm"
   viewBox="0 0 52.916664 52.916672"
   version="1.1"
   id="svg5"
   xml:space="preserve"
   inkscape:version="1.2.1 (9c6d41e410, 2022-07-14)"
   sodipodi:docname="stack icons.svg"
   xmlns:inkscape="http://www.inkscape.org/namespaces/inkscape"
   xmlns:sodipodi="http://sodipodi.sourceforge.net/DTD/sodipodi-0.dtd"
   xmlns="http://www.w3.org/2000/svg"
   xmlns:svg="http://www.w3.org/2000/svg"><sodipodi:namedview
     id="namedview7"
     pagecolor="#ffffff"
     bordercolor="#000000"
     borderopacity="0.25"
     inkscape:showpageshadow="2"
     inkscape:pageopacity="0.0"
     inkscape:pagecheckerboard="0"
     inkscape:deskcolor="#d1d1d1"
     inkscape:document-units="mm"
     showgrid="false"
     inkscape:zoom="0.26362494"
     inkscape:cx="-299.66815"
     inkscape:cy="398.29312"
     inkscape:window-width="1920"
     inkscape:window-height="1017"
     inkscape:window-x="-8"
     inkscape:window-y="-8"
     inkscape:window-maximized="1"
     inkscape:current-layer="layer1" /><defs
     id="defs2" /><g
     inkscape:label="Capa 1"
     inkscape:groupmode="layer"
     id="layer1"
     transform="translate(158.10349,-215.58738)"><g
       id="g1297"
       inkscape:export-filename="postgres.svg"
       inkscape:export-xdpi="96"
       inkscape:export-ydpi="96"><rect
         style="fill:none;stroke-width:1.49128;stroke-linecap:round;stroke-linejoin:round;paint-order:markers fill stroke"
         id="rect481-0-3"
         width="52.916668"
         height="52.916668"
         x="-158.1035"
         y="215.58737" /><g
         id="g968"
         transform="matrix(0.09777465,0,0,0.09777465,-162.28211,239.50021)"><path
           style="fill:#d0d0d0;fill-opacity:1;stroke-width:0.264583"
           d="m 328.08321,268.02812 c -0.64268,-0.65484 -1.10898,-1.19062 -1.03622,-1.19062 0.0728,0 0.65813,0.53578 1.3008,1.19062 0.64267,0.65485 1.10897,1.19063 1.03621,1.19063 -0.0728,0 -0.65812,-0.53578 -1.30079,-1.19063 z m 85.98958,-17.99166 c 0.49366,-0.50933 0.95708,-0.92605 1.02984,-0.92605 0.0728,0 -0.27159,0.41672 -0.76525,0.92605 -0.49366,0.50932 -0.95708,0.92604 -1.02984,0.92604 -0.0728,0 0.27159,-0.41672 0.76525,-0.92604 z m -92.84787,-51.88038 c 0.0127,-0.30824 0.0754,-0.37092 0.15986,-0.15986 0.0764,0.191 0.067,0.4192 -0.0209,0.50713 -0.0879,0.0879 -0.15046,-0.0684 -0.13898,-0.34727 z m -0.26459,-5.02708 c 0.0127,-0.30824 0.0754,-0.37092 0.15986,-0.15986 0.0764,0.191 0.067,0.4192 -0.0209,0.50712 -0.0879,0.0879 -0.15047,-0.0684 -0.13898,-0.34726 z m -0.24368,-5.40192 c 0,-0.3638 0.0601,-0.51263 0.13346,-0.33073 0.0734,0.1819 0.0734,0.47956 0,0.66146 -0.0734,0.1819 -0.13346,0.0331 -0.13346,-0.33073 z m -15.10214,-0.6835 c 0.0127,-0.30824 0.0754,-0.37092 0.15985,-0.15986 0.0764,0.191 0.067,0.4192 -0.0209,0.50713 -0.0879,0.0879 -0.15046,-0.0684 -0.13897,-0.34727 z m -12.17083,-6.35 c 0.0127,-0.30824 0.0754,-0.37092 0.15985,-0.15986 0.0764,0.191 0.067,0.4192 -0.0209,0.50713 -0.0879,0.0879 -0.15045,-0.0684 -0.13896,-0.34727 z m 27.00839,-0.11025 c 0,-0.3638 0.0601,-0.51263 0.13345,-0.33073 0.0734,0.1819 0.0734,0.47956 0,0.66146 -0.0734,0.1819 -0.13345,0.0331 -0.13345,-0.33073 z m -15.10214,-0.6835 c 0.0127,-0.30824 0.0754,-0.37092 0.15985,-0.15986 0.0764,0.191 0.067,0.4192 -0.0209,0.50713 -0.0879,0.0879 -0.15045,-0.0684 -0.13896,-0.34727 z m -12.17084,-7.14375 c 0.0127,-0.30824 0.0754,-0.37092 0.15985,-0.15986 0.0764,0.191 0.067,0.4192 -0.0209,0.50712 -0.0879,0.0879 -0.15045,-0.0684 -0.13897,-0.34726 z m 27.028,-1.43317 c 0,-0.50932 0.0545,-0.71768 0.12099,-0.46302 0.0666,0.25466 0.0666,0.67138 0,0.92604 -0.0665,0.25466 -0.12099,0.0463 -0.12099,-0.46302 z m -15.12175,-1.21266 c 0.0127,-0.30824 0.0754,-0.37092 0.15986,-0.15987 0.0764,0.19101 0.067,0.41921 -0.0209,0.50713 -0.0879,0.0879 -0.15045,-0.0684 -0.13896,-0.34726 z m -12.17083,-6.35 c 0.0127,-0.30824 0.0754,-0.37092 0.15985,-0.15987 0.0764,0.19101 0.067,0.41921 -0.0209,0.50713 -0.0879,0.0879 -0.15046,-0.0684 -0.13897,-0.34726 z m 27.06324,-8.70922 c 0,-1.4552 0.0451,-2.01676 0.0987,-1.2479 0.0536,0.76888 0.0531,1.9595 0,2.64583 -0.0543,0.68636 -0.0982,0.0573 -0.0975,-1.39793 z m -15.09319,-4.6302 c 0,-0.94589 0.048,-1.33284 0.10671,-0.8599 0.0587,0.47294 0.0587,1.24685 0,1.71979 -0.0587,0.47294 -0.10671,0.086 -0.10671,-0.85989 z m -49.09875,-0.45599 c 0.47294,-0.0587 1.24685,-0.0587 1.71979,0 0.47294,0.0587 0.086,0.10671 -0.8599,0.10671 -0.94588,0 -1.33283,-0.048 -0.85989,-0.10671 z m 215.65196,-5.54558 c 0.191,-0.0764 0.41921,-0.067 0.50713,0.0209 0.0879,0.0879 -0.0684,0.15047 -0.34727,0.13898 -0.30824,-0.0127 -0.37092,-0.0754 -0.15986,-0.15986 z M 129.34736,138.8453 c -0.3291,-0.41965 -0.31974,-0.42899 0.0999,-0.0999 0.44073,0.34565 0.58089,0.56293 0.36313,0.56293 -0.055,0 -0.2633,-0.20836 -0.46303,-0.46303 z m 175.5345,-3.37343 c 0.002,-0.87313 0.0509,-1.19841 0.10976,-0.72287 0.0589,0.47556 0.0577,1.18994 -0.003,1.5875 -0.0604,0.39759 -0.10856,0.008 -0.10707,-0.86463 z m -50.81081,-0.58023 c 0.25743,-0.0671 0.61462,-0.0627 0.79375,0.01 0.17913,0.0725 -0.0315,0.12734 -0.46805,0.12197 -0.43657,-0.005 -0.58313,-0.0647 -0.3257,-0.13179 z m 4.64171,0.003 c 0.191,-0.0764 0.4192,-0.067 0.50712,0.0209 0.0879,0.0879 -0.0684,0.15047 -0.34727,0.13899 -0.30822,-0.0127 -0.37091,-0.0754 -0.15985,-0.15986 z m 61.26229,-3.65575 c 0,-1.30968 0.0439,-1.87883 0.0994,-1.26476 0.0555,0.61407 0.0562,1.68564 0.003,2.38125 -0.0547,0.69562 -0.10009,0.1932 -0.10089,-1.11649 z m -125.10956,-0.92604 c 0.71667,-0.7276 1.36256,-1.32291 1.43532,-1.32291 0.0728,0 -0.45407,0.59531 -1.17073,1.32291 -0.71667,0.72761 -1.36256,1.32292 -1.43532,1.32292 -0.0728,0 0.45407,-0.59531 1.17073,-1.32292 z m 125.3416,-16.93333 c 0,-0.50933 0.0545,-0.71768 0.12099,-0.46302 0.0666,0.25466 0.0666,0.67138 0,0.92604 -0.0665,0.25466 -0.12099,0.0463 -0.12099,-0.46302 z m 155.98138,0.0728 c 0.47556,-0.0589 1.18994,-0.0577 1.5875,0.003 0.39759,0.0603 0.008,0.10854 -0.86463,0.10705 -0.87313,-0.003 -1.19841,-0.0509 -0.72287,-0.10975 z m 76.51494,-12.04524 c 1.09643,-1.16819 1.33397,-1.37824 1.33397,-1.17956 0,0.0425 -0.56554,0.60801 -1.25677,1.25677 l -1.25677,1.17956 z m -52.95522,-5.67084 c 0.191,-0.07644 0.4192,-0.06705 0.50713,0.0209 0.0879,0.08792 -0.0684,0.150469 -0.34727,0.138986 -0.30824,-0.0127 -0.37092,-0.07541 -0.15986,-0.159862 z m 10.5668,0.0056 c 0.1819,-0.0734 0.47955,-0.0734 0.66145,0 0.18191,0.0734 0.0331,0.133456 -0.33072,0.133456 -0.36381,0 -0.51264,-0.06006 -0.33073,-0.133456 z M 285.74987,93.452619 c 0,-0.04554 0.38695,-0.432488 0.8599,-0.859896 l 0.85989,-0.777108 -0.7771,0.859896 c -0.72437,0.801555 -0.94269,0.981525 -0.94269,0.777108 z m 175.15418,-0.546286 c 0,-0.05493 0.20836,-0.263287 0.46302,-0.463021 0.41965,-0.329088 0.42899,-0.319749 0.0999,0.09991 -0.34565,0.440717 -0.56292,0.580893 -0.56292,0.363114 z m 85.12379,-31.576461 c 0.46969,-0.05845 1.30312,-0.05943 1.85208,-0.0026 0.54896,0.05728 0.16465,0.105093 -0.85399,0.106283 -1.01865,0 -1.46778,-0.04569 -0.99809,-0.10414 z m -312.9638,-7.680405 c -0.32911,-0.419655 -0.31975,-0.428995 0.0999,-0.09991 0.25466,0.199733 0.46302,0.408093 0.46302,0.46302 0,0.217779 -0.21727,0.0776 -0.56291,-0.363114 z M 483.41451,17.974814 c 0.0127,-0.308227 0.0754,-0.37092 0.15986,-0.159854 0.0764,0.190995 0.067,0.419201 -0.0209,0.507119 -0.0879,0.08792 -0.15047,-0.06835 -0.13899,-0.347265 z m -15.06035,-0.374828 c 0,-0.363802 0.0601,-0.51263 0.13345,-0.330729 0.0734,0.181901 0.0734,0.479557 0,0.661458 -0.0734,0.181901 -0.13345,0.03307 -0.13345,-0.330729 z M 201.36867,14.799813 c 0.0127,-0.308226 0.0754,-0.370919 0.15985,-0.159853 0.0764,0.190995 0.067,0.419201 -0.0209,0.507119 -0.0879,0.08792 -0.15045,-0.06835 -0.13897,-0.347266 z M 468.35416,8.0749858 c 0,-0.3638021 0.0601,-0.5126303 0.13345,-0.3307292 0.0734,0.181901 0.0734,0.4795573 0,0.6614584 -0.0734,0.181901 -0.13345,0.033073 -0.13345,-0.3307292 z m 15.08125,-0.2645834 c 0,-0.3638021 0.0601,-0.5126302 0.13345,-0.3307292 0.0734,0.1819011 0.0734,0.4795574 0,0.6614584 -0.0734,0.1819011 -0.13345,0.033073 -0.13345,-0.3307292 z M 216.44992,6.3331463 c 0.0127,-0.3082264 0.0754,-0.3709194 0.15985,-0.1598533 0.0764,0.1909948 0.067,0.4192005 -0.0209,0.5071189 -0.0879,0.087918 -0.15045,-0.068352 -0.13897,-0.3472656 z M 201.36867,5.8039796 c 0.0127,-0.3082264 0.0754,-0.3709194 0.15985,-0.1598533 0.0764,0.1909948 0.067,0.4192005 -0.0209,0.5071189 -0.0879,0.087918 -0.15045,-0.068352 -0.13897,-0.3472656 z M 313.28743,-11.393938 c 0.0127,-0.308226 0.0754,-0.370919 0.15985,-0.159853 0.0764,0.190995 0.067,0.4192 -0.0209,0.507119 -0.0879,0.08792 -0.15045,-0.06835 -0.13896,-0.347266 z m -15.08125,-0.529167 c 0.0127,-0.308226 0.0754,-0.370919 0.15985,-0.159853 0.0764,0.190995 0.067,0.419201 -0.0209,0.507119 -0.0879,0.08792 -0.15045,-0.06835 -0.13896,-0.347266 z m -78.81515,-14.794619 c 0.005,-0.436563 0.0647,-0.583126 0.13178,-0.325694 0.0671,0.257431 0.0627,0.614619 -0.01,0.79375 -0.0725,0.17913 -0.12736,-0.03149 -0.12197,-0.468056 z m 78.81515,-0.02204 c 0.0127,-0.308226 0.0754,-0.370919 0.15985,-0.159853 0.0764,0.190994 0.067,0.4192 -0.0209,0.507119 -0.0879,0.08792 -0.15045,-0.06835 -0.13896,-0.347266 z m -93.9062,-0.374835 c 0,-0.363802 0.06,-0.512631 0.13345,-0.330729 0.0734,0.181901 0.0734,0.479557 0,0.661458 -0.0734,0.181901 -0.13345,0.03307 -0.13345,-0.330729 z m 108.98745,0.110244 c 0.0127,-0.308227 0.0754,-0.37092 0.15985,-0.159854 0.0764,0.190995 0.067,0.419201 -0.0209,0.507119 -0.0879,0.08792 -0.15045,-0.06835 -0.13896,-0.347265 z m 151.34166,-2.910417 c 0.0127,-0.308227 0.0754,-0.37092 0.15986,-0.159853 0.0764,0.190994 0.067,0.4192 -0.0209,0.507118 -0.0879,0.08792 -0.15047,-0.06835 -0.13899,-0.347265 z m 15.08125,-0.529167 c 0.0127,-0.308226 0.0754,-0.370919 0.15986,-0.159853 0.0764,0.190995 0.067,0.4192 -0.0209,0.507119 -0.0879,0.08792 -0.15047,-0.06835 -0.13899,-0.347266 z m -15.31514,-5.005036 c 0.005,-0.436562 0.0647,-0.583126 0.13179,-0.325694 0.0671,0.257432 0.0627,0.614619 -0.01,0.79375 -0.0725,0.179131 -0.12735,-0.03149 -0.12198,-0.468056 z m 15.08125,-0.264583 c 0.005,-0.436563 0.0647,-0.583126 0.13179,-0.325694 0.0671,0.257431 0.0627,0.614619 -0.01,0.79375 -0.0725,0.179131 -0.12735,-0.03149 -0.12198,-0.468056 z m -15.06609,-5.291667 c 0.003,-0.582083 0.0571,-0.789054 0.12041,-0.459936 0.0633,0.329118 0.0609,0.805368 -0.005,1.058334 -0.0662,0.252965 -0.11801,-0.01633 -0.11507,-0.598398 z m 15.06609,0.264583 c 0.005,-0.436562 0.0647,-0.583125 0.13179,-0.325694 0.0671,0.257432 0.0627,0.614619 -0.01,0.79375 -0.0725,0.179131 -0.12735,-0.03149 -0.12198,-0.468056 z M 204.29998,-50.13335 c 0,-0.363803 0.06,-0.512631 0.13345,-0.33073 0.0734,0.181901 0.0734,0.479558 0,0.661459 -0.0734,0.181901 -0.13345,0.03307 -0.13345,-0.330729 z m 15.09105,-0.396875 c 0.005,-0.436563 0.0647,-0.583126 0.13178,-0.325695 0.0671,0.257432 0.0627,0.61462 -0.01,0.79375 -0.0725,0.179131 -0.12736,-0.03149 -0.12197,-0.468055 z m -15.37652,-5.842882 c 0.0127,-0.308226 0.0754,-0.370919 0.15985,-0.159853 0.0764,0.190995 0.067,0.4192 -0.0209,0.507119 -0.0879,0.08792 -0.15045,-0.06835 -0.13896,-0.347266 z m -0.26459,-5.027083 c 0.0127,-0.308227 0.0754,-0.37092 0.15985,-0.159854 0.0764,0.190995 0.067,0.419201 -0.0209,0.507119 -0.0879,0.08792 -0.15045,-0.06835 -0.13897,-0.347265 z m -0.26458,-4.497917 c 0.0127,-0.308227 0.0754,-0.37092 0.15985,-0.159854 0.0764,0.190995 0.067,0.419201 -0.0209,0.507119 -0.0879,0.08792 -0.15046,-0.06835 -0.13897,-0.347265 z m 15.08125,-0.529167 c 0.0127,-0.308226 0.0754,-0.370919 0.15985,-0.159853 0.0764,0.190995 0.067,0.4192 -0.0209,0.507119 -0.0879,0.08792 -0.15046,-0.06835 -0.13897,-0.347266 z m 222.55985,0.236538 c 0.25466,-0.06655 0.67138,-0.06655 0.92604,0 0.25466,0.06655 0.0463,0.121001 -0.46302,0.121001 -0.50932,0 -0.71768,-0.05445 -0.46302,-0.121001 z m -237.87499,-4.97699 c 0.005,-0.436563 0.0647,-0.583126 0.13177,-0.325695 0.0671,0.257432 0.0627,0.61462 -0.01,0.79375 -0.0725,0.179131 -0.12737,-0.03149 -0.12197,-0.468055 z m 54.9112,-3.604708 c 0.17947,-0.180821 0.39297,-0.262115 0.47443,-0.180652 0.0815,0.08146 -0.0654,0.229407 -0.32632,0.328766 -0.37708,0.143584 -0.40747,0.113194 -0.14811,-0.148114 z m 27.5672,-5.192689 -0.64144,-0.727604 0.72761,0.641432 c 0.40018,0.35279 0.7276,0.680212 0.7276,0.727604 0,0.207508 -0.21426,0.03862 -0.81377,-0.641432 z m 158.19125,-1.834385 c 0.19101,-0.07643 0.41921,-0.06703 0.50713,0.02088 0.0879,0.08792 -0.0684,0.150453 -0.34727,0.138965 -0.30824,-0.0127 -0.37092,-0.07539 -0.15986,-0.159851 z m 3.43959,0 c 0.191,-0.07643 0.4192,-0.06703 0.50712,0.02088 0.0879,0.08792 -0.0684,0.150453 -0.34726,0.138965 -0.30824,-0.0127 -0.37092,-0.07539 -0.15986,-0.159851 z m -181.52662,-4.772719 c 0.4697,-0.05845 1.30314,-0.05941 1.85209,-0.0021 0.54895,0.05728 0.16465,0.105098 -0.854,0.106272 -1.01864,0.0011 -1.46778,-0.04569 -0.99809,-0.104137 z m 182.05578,-2.371032 c 0.19101,-0.07643 0.41921,-0.06703 0.50713,0.02088 0.0879,0.08792 -0.0684,0.150453 -0.34727,0.138965 -0.30824,-0.0127 -0.37092,-0.07539 -0.15986,-0.159851 z m 11.90625,0 c 0.19101,-0.07643 0.41921,-0.06703 0.50713,0.02088 0.0879,0.08792 -0.0684,0.150453 -0.34727,0.138965 -0.30823,-0.0127 -0.37091,-0.07539 -0.15986,-0.159851 z M 51.106221,-99.345853 c 0,-0.363802 0.06005,-0.51263 0.133452,-0.330729 0.0734,0.181901 0.0734,0.479557 0,0.661458 -0.0734,0.181901 -0.133452,0.03307 -0.133452,-0.330729 z m 29.907722,-1.455207 c 0.0054,-0.43656 0.06469,-0.58313 0.131773,-0.3257 0.06708,0.25744 0.06267,0.61462 -0.0098,0.79375 -0.07248,0.17914 -0.127363,-0.0315 -0.121971,-0.46805 z m -15.091055,-1.19063 c 0,-0.3638 0.06005,-0.51263 0.133453,-0.33073 0.0734,0.18191 0.0734,0.47956 0,0.66146 -0.0734,0.1819 -0.133453,0.0331 -0.133453,-0.33073 z m 199.911182,0.33821 c 0.4697,-0.0584 1.30314,-0.0594 1.85209,-0.002 0.54895,0.0573 0.16465,0.10509 -0.854,0.10627 -1.01864,0.001 -1.46778,-0.0457 -0.99809,-0.10414 z m 194.4912,-2.37103 c 0.191,-0.0764 0.41921,-0.067 0.50713,0.0209 0.0879,0.0879 -0.0684,0.15045 -0.34727,0.13896 -0.30824,-0.0127 -0.37092,-0.0754 -0.15986,-0.15985 z M 65.902,-113.78769 c 0.01269,-0.30823 0.07539,-0.37092 0.159853,-0.15986 0.07643,0.191 0.06703,0.4192 -0.02089,0.50712 -0.08792,0.0879 -0.150453,-0.0683 -0.138965,-0.34726 z m 15.111943,-0.77171 c 0.0054,-0.43656 0.06469,-0.58312 0.131773,-0.32569 0.06708,0.25743 0.06267,0.61462 -0.0098,0.79375 -0.07248,0.17913 -0.127363,-0.0315 -0.121971,-0.46806 z m -29.92861,-0.022 c 0.0127,-0.30823 0.07539,-0.37092 0.159852,-0.15986 0.07643,0.191 0.06703,0.4192 -0.02089,0.50712 -0.08792,0.0879 -0.150453,-0.0684 -0.138964,-0.34726 z m 491.616747,-14.66233 c 0,-0.3638 0.0601,-0.51263 0.13345,-0.33073 0.0734,0.1819 0.0734,0.47956 0,0.66146 -0.0734,0.1819 -0.13345,0.0331 -0.13345,-0.33073 z m -0.0209,-12.06059 c 0.0127,-0.30823 0.0754,-0.37092 0.15986,-0.15985 0.0764,0.19099 0.067,0.4192 -0.0209,0.50711 -0.0879,0.0879 -0.15046,-0.0684 -0.13898,-0.34726 z m -115.53665,-25.31181 -0.50403,-0.59531 0.59532,0.50403 c 0.55943,0.47366 0.71575,0.68659 0.50403,0.68659 -0.0502,0 -0.31811,-0.26789 -0.59532,-0.59531 z m 15.4695,-5.68854 c -0.32908,-0.41965 -0.31974,-0.429 0.0999,-0.0999 0.25466,0.19972 0.46302,0.40808 0.46302,0.46302 0,0.21777 -0.21727,0.0776 -0.56293,-0.36312 z m 82.9707,-5.95313 -1.31297,-1.38906 1.38906,1.31297 c 0.76398,0.72214 1.38906,1.34721 1.38906,1.38907 0,0.19742 -0.24511,-0.0222 -1.46515,-1.31298 z M 245.5332,-194.19898 c 0.49366,-0.50933 0.95709,-0.92604 1.02985,-0.92604 0.0728,0 -0.27161,0.41671 -0.76526,0.92604 -0.49366,0.50932 -0.95709,0.92604 -1.02985,0.92604 -0.0728,0 0.27161,-0.41672 0.76526,-0.92604 z m 306.61834,0.19843 c -0.32909,-0.41964 -0.31975,-0.429 0.0999,-0.0999 0.44071,0.34564 0.58089,0.56292 0.36311,0.56292 -0.0549,0 -0.26329,-0.20836 -0.46302,-0.46303 z m -386.30753,-14.00521 c 0.19099,-0.0764 0.4192,-0.067 0.50712,0.0209 0.0879,0.0879 -0.0684,0.15045 -0.34727,0.13897 -0.30823,-0.0127 -0.37092,-0.0754 -0.15985,-0.15985 z m 14.53554,0.006 c 0.18191,-0.0734 0.47956,-0.0734 0.66146,0 0.1819,0.0734 0.0331,0.13345 -0.33073,0.13345 -0.3638,0 -0.51263,-0.0601 -0.33073,-0.13345 z m 139.04358,-1.33104 c 0.25744,-0.0671 0.61463,-0.0627 0.79375,0.01 0.17915,0.0725 -0.0315,0.12737 -0.46805,0.12197 -0.43656,-0.005 -0.58311,-0.0647 -0.3257,-0.13177 z m 6.60956,0.001 c 0.25466,-0.0666 0.67138,-0.0666 0.92604,0 0.25466,0.0666 0.0463,0.121 -0.46302,0.121 -0.50933,0 -0.71769,-0.0545 -0.46302,-0.121 z m 93.28216,-5.55461 c 0.191,-0.0764 0.41921,-0.067 0.50713,0.0209 0.0879,0.0879 -0.0684,0.15045 -0.34727,0.13896 -0.30824,-0.0127 -0.37092,-0.0754 -0.15986,-0.15985 z m 19.05,0 c 0.19101,-0.0764 0.41921,-0.067 0.50713,0.0209 0.0879,0.0879 -0.0684,0.15045 -0.34727,0.13896 -0.30824,-0.0127 -0.37092,-0.0754 -0.15986,-0.15985 z m -10.20299,-0.27658 c 0.5457,-0.0571 1.43867,-0.0571 1.98437,0 0.54571,0.0571 0.0992,0.10378 -0.99219,0.10378 -1.0914,0 -1.53789,-0.0467 -0.99218,-0.10378 z m -261.78869,-7.92559 c 0.191,-0.0764 0.4192,-0.067 0.50712,0.0209 0.0879,0.0879 -0.0684,0.15046 -0.34726,0.13897 -0.30823,-0.0127 -0.37092,-0.0754 -0.15986,-0.15986 z m 13.49375,0 c 0.191,-0.0764 0.4192,-0.067 0.50712,0.0209 0.0879,0.0879 -0.0684,0.15046 -0.34726,0.13897 -0.30823,-0.0127 -0.37092,-0.0754 -0.15986,-0.15986 z m 141.94209,-1.33798 c 0.84206,-0.0527 2.15175,-0.0522 2.91042,0.001 0.75866,0.0533 0.0697,0.0964 -1.53101,0.0958 -1.60073,-6.1e-4 -2.22147,-0.0442 -1.37941,-0.0968 z m -153.73258,-12.95116 c 0.25466,-0.0666 0.67138,-0.0666 0.92604,0 0.25466,0.0666 0.0463,0.121 -0.46302,0.121 -0.50932,0 -0.71768,-0.0545 -0.46302,-0.121 z m 8.86354,-0.004 c 0.32742,-0.0631 0.8632,-0.0631 1.19063,0 0.32742,0.0631 0.0595,0.11466 -0.59532,0.11466 -0.65484,0 -0.92273,-0.0516 -0.59531,-0.11466 z m 156.64988,-1.31693 c 0.191,-0.0764 0.4192,-0.067 0.50712,0.0209 0.0879,0.0879 -0.0684,0.15046 -0.34726,0.13897 -0.30824,-0.0127 -0.37092,-0.0754 -0.15986,-0.15985 z m -10.46255,-0.2672 c 0.25744,-0.0671 0.61462,-0.0627 0.79375,0.01 0.17915,0.0725 -0.0315,0.12736 -0.46805,0.12197 -0.43656,-0.005 -0.58312,-0.0647 -0.3257,-0.13177 z"
           id="path984" /><path
           style="fill:#b9b9b9;fill-opacity:1;stroke-width:0.264583"
           d="m 320.96033,192.33525 c 0.0127,-0.30824 0.0754,-0.37092 0.15986,-0.15986 0.0764,0.191 0.067,0.4192 -0.0209,0.50712 -0.0879,0.0879 -0.15047,-0.0684 -0.13898,-0.34726 z m -0.24368,-5.66651 c 0,-0.3638 0.0601,-0.51263 0.13346,-0.33072 0.0734,0.1819 0.0734,0.47955 0,0.66145 -0.0734,0.1819 -0.13346,0.0331 -0.13346,-0.33073 z m -0.26458,-7.14375 c 0,-0.3638 0.0601,-0.51263 0.13345,-0.33072 0.0734,0.1819 0.0734,0.47955 0,0.66145 -0.0734,0.1819 -0.13345,0.0331 -0.13345,-0.33073 z m -15.34584,-8.46666 c 0,-0.3638 0.0601,-0.51263 0.13345,-0.33073 0.0734,0.1819 0.0734,0.47956 0,0.66146 -0.0734,0.1819 -0.13345,0.0331 -0.13345,-0.33073 z m 15.09104,-1.19063 c 0.005,-0.43656 0.0647,-0.58311 0.13179,-0.3257 0.0671,0.25744 0.0627,0.61463 -0.01,0.79375 -0.0725,0.17915 -0.12734,-0.0315 -0.12197,-0.46805 z m -27.28276,-6.9012 c 0.0127,-0.30824 0.0754,-0.37092 0.15985,-0.15987 0.0764,0.19101 0.067,0.41921 -0.0209,0.50713 -0.0879,0.0879 -0.15046,-0.0684 -0.13897,-0.34726 z m -122.85062,-4.26615 c 0.32912,-0.0633 0.80537,-0.0609 1.05833,0.005 0.25297,0.0662 -0.0163,0.118 -0.5984,0.11506 -0.58208,-0.003 -0.78905,-0.0571 -0.45993,-0.12041 z m 134.82067,-5.10452 c 0,-0.94589 0.048,-1.33284 0.10671,-0.8599 0.0587,0.47294 0.0587,1.24685 0,1.71979 -0.0587,0.47294 -0.10671,0.086 -0.10671,-0.85989 z m 15.11615,-10.58334 c 0,-5.31151 0.0353,-7.4844 0.0785,-4.82864 0.0432,2.65575 0.0432,7.00153 0,9.65729 -0.0432,2.65575 -0.0785,0.48286 -0.0785,-4.82865 z m -65.8024,6.96852 c 0.1819,-0.0734 0.47956,-0.0734 0.66146,0 0.1819,0.0734 0.0331,0.13346 -0.33073,0.13346 -0.36381,0 -0.51263,-0.0601 -0.33073,-0.13346 z m 4.24987,-0.006 c 0.19099,-0.0764 0.4192,-0.067 0.50712,0.0209 0.0879,0.0879 -0.0684,0.15046 -0.34727,0.13898 -0.30823,-0.0127 -0.37092,-0.0754 -0.15985,-0.15986 z m 224.10209,-5.55625 c 0.191,-0.0764 0.41921,-0.067 0.50713,0.0209 0.0879,0.0879 -0.0684,0.15047 -0.34727,0.13899 -0.30824,-0.0127 -0.37092,-0.0754 -0.15986,-0.15986 z m -226.77036,-9.53521 c 0.46969,-0.0585 1.30313,-0.0594 1.85208,-0.003 0.54895,0.0573 0.16465,0.1051 -0.85399,0.10629 -1.01865,0 -1.46779,-0.0457 -0.99809,-0.10414 z m 49.08669,-1.79337 c 0.003,-0.58209 0.0571,-0.78907 0.1204,-0.45993 0.0633,0.32912 0.0609,0.80537 -0.005,1.05834 -0.0662,0.25294 -0.11801,-0.0164 -0.11507,-0.59841 z M 212.72487,118.8355 c 0,-0.0549 0.20836,-0.26329 0.46302,-0.46302 0.41964,-0.32909 0.429,-0.31975 0.0999,0.0999 -0.34565,0.44071 -0.56292,0.58089 -0.56292,0.36311 z m 107.49291,-3.60426 c 0,-0.65484 0.0516,-0.92273 0.11464,-0.59531 0.0631,0.32742 0.0631,0.8632 0,1.19062 -0.0631,0.32743 -0.11464,0.0595 -0.11464,-0.59531 z m 244.13835,-2.77812 c 0.49366,-0.50933 0.95708,-0.92605 1.02984,-0.92605 0.0728,0 -0.27159,0.41672 -0.76525,0.92605 -0.49366,0.50932 -0.95708,0.92604 -1.02984,0.92604 -0.0728,0 0.27159,-0.41672 0.76525,-0.92604 z m -122.43001,-5.15938 c 0,-0.65484 0.0516,-0.92273 0.11464,-0.59531 0.0631,0.32742 0.0631,0.8632 0,1.19062 -0.063,0.32743 -0.11464,0.0595 -0.11464,-0.59531 z m -121.43384,-2.77812 c 0.003,-0.87313 0.0509,-1.19841 0.10975,-0.72287 0.0589,0.47556 0.0577,1.18993 -0.003,1.5875 -0.0604,0.39759 -0.10853,0.008 -0.10705,-0.86463 z M 270.08985,71.394252 c 0.19099,-0.07644 0.4192,-0.06704 0.50711,0.0209 0.0879,0.08792 -0.0684,0.150469 -0.34726,0.138986 -0.30823,-0.0127 -0.37092,-0.07541 -0.15985,-0.159862 z m -45.47876,-4.780201 -0.64143,-0.727604 0.7276,0.641429 c 0.40019,0.352796 0.72761,0.680218 0.72761,0.727605 0,0.207512 -0.21426,0.03863 -0.81378,-0.64143 z m -1.7249,-1.719792 -0.50403,-0.595312 0.59531,0.504031 c 0.55945,0.473657 0.71576,0.686594 0.50403,0.686594 -0.0502,0 -0.3181,-0.267891 -0.59531,-0.595313 z m 11.7991,-9.591146 c -0.64268,-0.654844 -1.10898,-1.190625 -1.03622,-1.190625 0.0728,0 0.65812,0.535781 1.3008,1.190625 0.64268,0.654844 1.10898,1.190625 1.03622,1.190625 -0.0728,0 -0.65812,-0.535781 -1.3008,-1.190625 z m 248.75012,-36.38021 c 0,-0.363802 0.0601,-0.51263 0.13345,-0.330729 0.0734,0.181901 0.0734,0.479557 0,0.661458 -0.0734,0.181901 -0.13345,0.03307 -0.13345,-0.330729 z m -15.10215,-2.271006 c 0.0127,-0.308227 0.0754,-0.37092 0.15986,-0.159854 0.0764,0.190995 0.067,0.419201 -0.0209,0.507119 -0.0879,0.08792 -0.15046,-0.06835 -0.13898,-0.347265 z M 216.47081,13.631236 c 0,-0.363802 0.0601,-0.51263 0.13345,-0.330729 0.0734,0.181901 0.0734,0.479557 0,0.661458 -0.0734,0.181901 -0.13345,0.03307 -0.13345,-0.330729 z M 468.35416,9.1333192 c 0,-0.3638021 0.0601,-0.5126303 0.13345,-0.3307292 0.0734,0.181901 0.0734,0.4795573 0,0.6614583 -0.0734,0.1819011 -0.13345,0.033073 -0.13345,-0.3307291 z M 216.44992,7.1268963 c 0.0127,-0.3082263 0.0754,-0.3709194 0.15985,-0.1598533 0.0764,0.1909948 0.067,0.4192006 -0.0209,0.507119 -0.0879,0.087918 -0.15045,-0.068352 -0.13897,-0.3472657 z M 483.43541,6.752069 c 0,-0.3638021 0.0601,-0.5126302 0.13345,-0.3307291 0.0734,0.181901 0.0734,0.4795573 0,0.6614583 -0.0734,0.1819011 -0.13345,0.033073 -0.13345,-0.3307292 z M 468.06867,3.9518962 c 0.0127,-0.3082264 0.0754,-0.3709194 0.15986,-0.1598533 0.0764,0.1909947 0.067,0.4192005 -0.0209,0.5071189 -0.0879,0.087918 -0.15047,-0.068352 -0.13898,-0.3472656 z M 219.09576,-20.389772 c 0.0127,-0.308226 0.0754,-0.370919 0.15985,-0.159853 0.0764,0.190995 0.067,0.419201 -0.0209,0.507119 -0.0879,0.08792 -0.15045,-0.06835 -0.13896,-0.347266 z m -15.08125,-1.852083 c 0.0127,-0.308226 0.0754,-0.37092 0.15985,-0.159853 0.0764,0.190994 0.067,0.4192 -0.0209,0.507119 -0.0879,0.08792 -0.15045,-0.06835 -0.13896,-0.347266 z m 15.36672,-3.285244 c 0,-0.363802 0.0601,-0.51263 0.13345,-0.330729 0.0734,0.181901 0.0734,0.479557 0,0.661458 -0.0734,0.181901 -0.13345,0.03307 -0.13345,-0.330729 z m 78.85564,-0.132292 c 0.005,-0.436562 0.0647,-0.583126 0.13177,-0.325694 0.0671,0.257432 0.0627,0.614619 -0.01,0.79375 -0.0725,0.179131 -0.12737,-0.03149 -0.12197,-0.468056 z m 15.05056,-2.138714 c 0.0127,-0.308227 0.0754,-0.37092 0.15985,-0.159854 0.0764,0.190995 0.067,0.419201 -0.0209,0.507119 -0.0879,0.08792 -0.15045,-0.06835 -0.13896,-0.347265 z m -108.98745,-0.374828 c 0,-0.363802 0.06,-0.51263 0.13345,-0.330729 0.0734,0.181901 0.0734,0.479557 0,0.661459 -0.0734,0.181901 -0.13345,0.03307 -0.13345,-0.33073 z m 93.64161,-2.271006 c 0.0127,-0.308226 0.0754,-0.370919 0.15986,-0.159853 0.0764,0.190995 0.067,0.4192 -0.0209,0.507119 -0.0879,0.08792 -0.15045,-0.06835 -0.13896,-0.347266 z m 166.44382,-3.814411 c 0,-0.363802 0.0601,-0.51263 0.13345,-0.330729 0.0734,0.181901 0.0734,0.479557 0,0.661459 -0.0734,0.181901 -0.13345,0.03307 -0.13345,-0.33073 z m -244.6824,-4.101042 c 5.3e-4,-1.600729 0.0442,-2.22146 0.0968,-1.379402 0.0527,0.842058 0.0522,2.151745 -0.001,2.910417 -0.0533,0.758671 -0.0964,0.06972 -0.0958,-1.531015 z m 259.81082,0.132292 c 0,-1.091406 0.0467,-1.537891 0.1038,-0.992187 0.0571,0.545703 0.0571,1.438672 0,1.984375 -0.0571,0.545703 -0.1038,0.09922 -0.1038,-0.992188 z m -15.14932,-4.123089 c 0.0127,-0.308227 0.0754,-0.37092 0.15986,-0.159854 0.0764,0.190995 0.067,0.419201 -0.0209,0.507119 -0.0879,0.08792 -0.15046,-0.06835 -0.13898,-0.347265 z m -260.05473,-6.592536 c 0.005,-0.436563 0.0647,-0.583126 0.13178,-0.325695 0.0671,0.257432 0.0627,0.61462 -0.01,0.793751 -0.0725,0.17913 -0.12736,-0.03149 -0.12197,-0.468056 z m 15.05056,-2.667882 c 0.0127,-0.308226 0.0754,-0.370919 0.15985,-0.159853 0.0764,0.190995 0.067,0.419201 -0.0209,0.507119 -0.0879,0.08792 -0.15046,-0.06835 -0.13897,-0.347266 z m -15.34583,-3.96875 c 0.0127,-0.308226 0.0754,-0.370919 0.15985,-0.159853 0.0764,0.190995 0.067,0.4192 -0.0209,0.507119 -0.0879,0.08792 -0.15045,-0.06835 -0.13896,-0.347266 z m 15.08125,-1.852083 c 0.0127,-0.308227 0.0754,-0.37092 0.15985,-0.159854 0.0764,0.190995 0.067,0.419201 -0.0209,0.507119 -0.0879,0.08792 -0.15045,-0.06835 -0.13896,-0.347265 z m 53.0973,-2.41404 c 0.32912,-0.06329 0.80537,-0.06088 1.05833,0.0053 0.25297,0.06622 -0.0163,0.118005 -0.59839,0.115068 -0.58209,-0.0029 -0.78906,-0.05712 -0.45994,-0.120407 z m -68.44314,-0.76096 c 0.0127,-0.308227 0.0754,-0.37092 0.15985,-0.159854 0.0764,0.190995 0.067,0.419201 -0.0209,0.507119 -0.0879,0.08792 -0.15045,-0.06835 -0.13897,-0.347265 z m 15.08125,-1.852084 c 0.0127,-0.308226 0.0754,-0.370919 0.15986,-0.159853 0.0764,0.190995 0.067,0.4192 -0.0209,0.507119 -0.0879,0.08792 -0.15045,-0.06835 -0.13897,-0.347266 z m -15.54662,-10.958161 c 0,-0.945885 0.048,-1.332839 0.10672,-0.859896 0.0587,0.472943 0.0587,1.246849 0,1.719792 -0.0587,0.472943 -0.10672,0.08599 -0.10672,-0.859896 z m 64.54344,-4.687777 c 0.40218,-0.06082 0.99749,-0.05919 1.32291,0.0036 0.32543,0.0628 -0.004,0.112559 -0.73124,0.110574 -0.7276,-0.0021 -0.99385,-0.05337 -0.59167,-0.114186 z m 157.09272,-2.588265 c 0.34176,-0.363802 0.68093,-0.661458 0.75369,-0.661458 0.0728,0 -0.14734,0.297656 -0.48911,0.661458 -0.34176,0.363802 -0.68093,0.661458 -0.75369,0.661458 -0.0728,0 0.14735,-0.297656 0.48911,-0.661458 z m -221.43537,-1.344964 c 0.0127,-0.308227 0.0754,-0.37092 0.15985,-0.159854 0.0764,0.190995 0.067,0.419201 -0.0209,0.507119 -0.0879,0.08792 -0.15046,-0.06835 -0.13897,-0.347265 z m 15.71094,-5.948681 c -0.0959,-0.155202 -0.11765,-0.338931 -0.0483,-0.408286 0.0694,-0.06935 0.1966,0.05763 0.28277,0.282186 0.17891,0.466225 0.0264,0.548232 -0.23447,0.1261 z m 239.80607,-0.956887 c 0.19101,-0.07643 0.41921,-0.06703 0.50713,0.02088 0.0879,0.08792 -0.0684,0.150453 -0.34727,0.138965 -0.30823,-0.0127 -0.37091,-0.07539 -0.15986,-0.159851 z m 25.51634,-1.274468 c 0.003,-0.582084 0.0571,-0.789054 0.12041,-0.459936 0.0633,0.329118 0.0609,0.805368 -0.005,1.058333 -0.0662,0.252966 -0.118,-0.01632 -0.11507,-0.598397 z m -69.91673,-1.5875 c 0.34176,-0.363803 0.68093,-0.661459 0.75369,-0.661459 0.0728,0 -0.14734,0.297656 -0.48911,0.661459 -0.34176,0.363802 -0.68093,0.661458 -0.75369,0.661458 -0.0728,0 0.14735,-0.297656 0.48911,-0.661458 z M 51.106221,-100.40419 c 0,-0.3638 0.06005,-0.51263 0.133452,-0.33073 0.0734,0.18191 0.0734,0.47956 0,0.66146 -0.0734,0.181904 -0.133452,0.0331 -0.133452,-0.33073 z m 14.795779,-0.6835 c 0.01269,-0.30823 0.07539,-0.37092 0.159853,-0.15986 0.07643,0.191 0.06703,0.4192 -0.02089,0.50712 -0.08792,0.0879 -0.150453,-0.0683 -0.138965,-0.34726 z m 15.121746,-1.16858 c 0,-0.50932 0.05445,-0.71768 0.121002,-0.46302 0.06655,0.25466 0.06655,0.67138 0,0.92604 -0.06655,0.25466 -0.121002,0.0463 -0.121002,-0.46302 z m 183.228724,0.61852 c 0.18191,-0.0734 0.47956,-0.0734 0.66146,0 0.1819,0.0734 0.0331,0.13346 -0.33073,0.13346 -0.3638,0 -0.51263,-0.0601 -0.33073,-0.13346 z m 4.49792,0 c 0.1819,-0.0734 0.47956,-0.0734 0.66146,0 0.1819,0.0734 0.0331,0.13346 -0.33073,0.13346 -0.3638,0 -0.51263,-0.0601 -0.33073,-0.13346 z m 178.08113,-2.38676 c 0.191,-0.0764 0.41921,-0.067 0.50713,0.0209 0.0879,0.0879 -0.0684,0.15045 -0.34727,0.13896 -0.30824,-0.0127 -0.37092,-0.0754 -0.15986,-0.15985 z m -365.817577,-9.21197 c 0.0054,-0.43656 0.06469,-0.58312 0.131773,-0.32569 0.06708,0.25743 0.06267,0.61462 -0.0098,0.79375 -0.07248,0.17913 -0.127363,-0.0315 -0.121971,-0.46806 z m -29.92861,-0.55121 c 0.0127,-0.30823 0.07539,-0.37092 0.159852,-0.15986 0.07643,0.191 0.06703,0.4192 -0.02089,0.50712 -0.08792,0.0879 -0.150453,-0.0683 -0.138964,-0.34726 z M 65.902,-114.58144 c 0.01269,-0.30823 0.07539,-0.37092 0.159853,-0.15986 0.07643,0.191 0.06703,0.4192 -0.02089,0.50712 -0.08792,0.0879 -0.150453,-0.0684 -0.138965,-0.34726 z m 476.51459,-10.58334 c 0.0127,-0.30822 0.0754,-0.37092 0.15986,-0.15985 0.0764,0.19099 0.067,0.4192 -0.0209,0.50712 -0.0879,0.0879 -0.15047,-0.0683 -0.13898,-0.34727 z m 0.28549,-5.13732 c 0,-0.36381 0.0601,-0.51263 0.13345,-0.33073 0.0734,0.1819 0.0734,0.47955 0,0.66145 -0.0734,0.18191 -0.13345,0.0331 -0.13345,-0.33072 z m 0,-10.05417 c 0,-0.3638 0.0601,-0.51263 0.13345,-0.33073 0.0734,0.1819 0.0734,0.47956 0,0.66146 -0.0734,0.1819 -0.13345,0.0331 -0.13345,-0.33073 z m -119.9318,-30.36094 c -0.32909,-0.41965 -0.31975,-0.429 0.0999,-0.0999 0.44072,0.34565 0.58089,0.56292 0.36311,0.56292 -0.0549,0 -0.26328,-0.20836 -0.46302,-0.46302 z m -168.10895,-11.17865 c 0.26339,-0.29104 0.53842,-0.52916 0.61118,-0.52916 0.0728,0 -0.0832,0.23812 -0.3466,0.52916 -0.26339,0.29104 -0.53842,0.52917 -0.61118,0.52917 -0.0728,0 0.0832,-0.23813 0.3466,-0.52917 z m -149.62188,-2.24896 c 0.34177,-0.3638 0.68094,-0.66145 0.7537,-0.66145 0.0728,0 -0.14734,0.29765 -0.48912,0.66145 -0.34178,0.36381 -0.68094,0.66146 -0.7537,0.66146 -0.0728,0 0.14734,-0.29765 0.48912,-0.66146 z m 152.92917,-1.02593 c 0,-0.0549 0.20836,-0.2633 0.46302,-0.46302 0.41965,-0.32911 0.429,-0.31975 0.0999,0.0999 -0.34565,0.44073 -0.56292,0.58089 -0.56292,0.36313 z m -151.07709,-0.82615 c 0.34178,-0.3638 0.68094,-0.66146 0.7537,-0.66146 0.0728,0 -0.14734,0.29766 -0.48912,0.66146 -0.34177,0.3638 -0.68094,0.66146 -0.7537,0.66146 -0.0728,0 0.14734,-0.29766 0.48912,-0.66146 z m 137.05417,-6.61458 c 0.34178,-0.3638 0.68094,-0.66146 0.7537,-0.66146 0.0728,0 -0.14734,0.29766 -0.48911,0.66146 -0.34178,0.3638 -0.68094,0.66146 -0.7537,0.66146 -0.0728,0 0.14734,-0.29766 0.48911,-0.66146 z m -77.30794,-15.39428 c 0.19099,-0.0764 0.4192,-0.067 0.50712,0.0209 0.0879,0.0879 -0.0684,0.15045 -0.34727,0.13897 -0.30823,-0.0127 -0.37092,-0.0754 -0.15985,-0.15985 z m 12.68346,0.006 c 0.1819,-0.0734 0.47956,-0.0734 0.66146,0 0.1819,0.0734 0.0331,0.13345 -0.33073,0.13345 -0.3638,0 -0.51263,-0.0601 -0.33073,-0.13345 z m 152.68113,-1.06385 c 0.191,-0.0764 0.4192,-0.067 0.50712,0.0209 0.0879,0.0879 -0.0684,0.15045 -0.34726,0.13896 -0.30824,-0.0127 -0.37092,-0.0754 -0.15986,-0.15985 z m -10.33529,-0.2789 c 0.76399,-0.0534 2.01414,-0.0534 2.77813,0 0.76398,0.0534 0.1389,0.0972 -1.38907,0.0972 -1.52797,0 -2.15304,-0.0437 -1.38906,-0.0972 z m 98.44154,-5.54193 c 0.191,-0.0764 0.41921,-0.067 0.50713,0.0209 0.0879,0.0879 -0.0684,0.15045 -0.34727,0.13896 -0.30824,-0.0127 -0.37092,-0.0754 -0.15986,-0.15985 z m -100.27709,-9.525 c 0.19101,-0.0764 0.41921,-0.067 0.50713,0.0209 0.0879,0.0879 -0.0684,0.15045 -0.34726,0.13896 -0.30824,-0.0127 -0.37092,-0.0754 -0.15987,-0.15985 z m 6.35,0 c 0.19101,-0.0764 0.41921,-0.067 0.50713,0.0209 0.0879,0.0879 -0.0684,0.15045 -0.34726,0.13896 -0.30824,-0.0127 -0.37092,-0.0754 -0.15987,-0.15985 z m -156.51758,-12.96622 c 0.25466,-0.0666 0.67138,-0.0666 0.92604,0 0.25466,0.0666 0.0463,0.121 -0.46302,0.121 -0.50932,0 -0.71768,-0.0545 -0.46302,-0.121 z m 5.82587,-9.8e-4 c 0.25743,-0.0671 0.61462,-0.0627 0.79375,0.01 0.17913,0.0725 -0.0315,0.12737 -0.46806,0.12197 -0.43656,-0.005 -0.58312,-0.0647 -0.32569,-0.13177 z"
           id="path982" /><path
           style="fill:#a3a3a3;fill-opacity:1;stroke-width:0.264583"
           d="m 320.96033,191.5415 c 0.0127,-0.30824 0.0754,-0.37092 0.15986,-0.15986 0.0764,0.191 0.067,0.4192 -0.0209,0.50712 -0.0879,0.0879 -0.15047,-0.0684 -0.13898,-0.34726 z m -0.24368,-5.93109 c 0,-0.3638 0.0601,-0.51263 0.13346,-0.33073 0.0734,0.1819 0.0734,0.47956 0,0.66146 -0.0734,0.1819 -0.13346,0.0331 -0.13346,-0.33073 z m -15.36672,-4.38766 c 0.0127,-0.30824 0.0754,-0.37092 0.15985,-0.15987 0.0764,0.19101 0.067,0.41921 -0.0209,0.50713 -0.0879,0.0879 -0.15045,-0.0684 -0.13896,-0.34726 z m -11.90625,-1.85209 c 0.0127,-0.30824 0.0754,-0.37092 0.15985,-0.15986 0.0764,0.191 0.067,0.41921 -0.0209,0.50713 -0.0879,0.0879 -0.15045,-0.0684 -0.13896,-0.34727 z m 27.01818,-1.03629 c 0.005,-0.43656 0.0647,-0.58312 0.13179,-0.3257 0.0671,0.25744 0.0627,0.61462 -0.01,0.79375 -0.0725,0.17915 -0.12735,-0.0315 -0.12198,-0.46805 z m -15.37652,-6.37204 c 0.0127,-0.30824 0.0754,-0.37092 0.15986,-0.15986 0.0764,0.191 0.067,0.4192 -0.0209,0.50712 -0.0879,0.0879 -0.15045,-0.0684 -0.13896,-0.34726 z m -11.90625,-0.52917 c 0.0127,-0.30824 0.0754,-0.37092 0.15985,-0.15986 0.0764,0.191 0.067,0.41921 -0.0209,0.50713 -0.0879,0.0879 -0.15045,-0.0684 -0.13897,-0.34727 z m 27.04229,-3.41754 c 0.003,-0.72761 0.0534,-0.99386 0.11419,-0.59169 0.0608,0.40219 0.0592,0.99751 -0.004,1.32292 -0.0628,0.32544 -0.11256,-0.004 -0.11057,-0.73123 z m -27.30687,-5.84287 c 0.0127,-0.30824 0.0754,-0.37092 0.15985,-0.15987 0.0764,0.19101 0.067,0.41921 -0.0209,0.50713 -0.0879,0.0879 -0.15046,-0.0684 -0.13897,-0.34726 z m -124.30388,-3.46861 c 0.25743,-0.0671 0.61462,-0.0627 0.79375,0.01 0.17913,0.0725 -0.0315,0.12734 -0.46806,0.12197 -0.43656,-0.005 -0.58312,-0.0647 -0.32569,-0.13179 z m 136.27123,-2.06561 c 0.002,-0.87312 0.0509,-1.1984 0.10976,-0.72286 0.0589,0.47556 0.0577,1.18993 -0.003,1.5875 -0.0604,0.39759 -0.10856,0.008 -0.10707,-0.86464 z m 161.07015,-1.34495 c 0.0127,-0.30824 0.0754,-0.37092 0.15986,-0.15986 0.0764,0.191 0.067,0.4192 -0.0209,0.50712 -0.0879,0.0879 -0.15046,-0.0684 -0.13898,-0.34726 z m -212.53092,-5.31807 c 0.191,-0.0764 0.4192,-0.0671 0.50712,0.0209 0.0879,0.0879 -0.0684,0.15047 -0.34726,0.13898 -0.30823,-0.0127 -0.37092,-0.0754 -0.15986,-0.15986 z m 223.03196,-21.44226 c 0.47557,-0.0589 1.18994,-0.0577 1.5875,0.003 0.39759,0.0604 0.008,0.10854 -0.86463,0.10705 -0.87312,-0.003 -1.1984,-0.0509 -0.72287,-0.10974 z m -294.15527,-7.05192 c 0,-0.0549 0.20836,-0.26328 0.46302,-0.46302 0.41965,-0.32908 0.42901,-0.31975 0.0999,0.0999 -0.34564,0.44072 -0.56292,0.58089 -0.56292,0.36311 z m 137.92,-4.13342 c 0,-0.65485 0.0516,-0.92274 0.11464,-0.59531 0.0631,0.32742 0.0631,0.8632 0,1.19062 -0.0631,0.32742 -0.11464,0.0595 -0.11464,-0.59531 z m 150.69082,-4.14949 c 0.19101,-0.0764 0.41921,-0.067 0.50713,0.0209 0.0879,0.0879 -0.0684,0.15047 -0.34726,0.13899 -0.30824,-0.0127 -0.37092,-0.0754 -0.15987,-0.15986 z m 12.17084,0 c 0.191,-0.0764 0.4192,-0.067 0.50712,0.0209 0.0879,0.0879 -0.0684,0.15047 -0.34726,0.13899 -0.30824,-0.0127 -0.37092,-0.0754 -0.15986,-0.15986 z m -41.16401,-4.0526 c 0,-0.50932 0.0544,-0.71768 0.12099,-0.46302 0.0666,0.25466 0.0666,0.67138 0,0.92604 -0.0665,0.25467 -0.12099,0.0463 -0.12099,-0.46302 z m -121.48426,-2.80016 c 0.0127,-0.30824 0.0754,-0.37092 0.15986,-0.15986 0.0764,0.191 0.067,0.4192 -0.0209,0.50712 -0.0879,0.0879 -0.15046,-0.0684 -0.13898,-0.34726 z m 121.47444,-0.77171 c 0.005,-0.43656 0.0647,-0.58312 0.13179,-0.3257 0.0671,0.25744 0.0627,0.61462 -0.01,0.79375 -0.0725,0.17915 -0.12734,-0.0315 -0.12197,-0.46805 z m -141.88826,-12.236981 -0.64144,-0.727604 0.72761,0.641429 c 0.40018,0.352796 0.7276,0.680218 0.7276,0.727605 0,0.207512 -0.21426,0.03863 -0.81377,-0.64143 z m 240.52628,-1.389062 c 0,-0.145521 0.1261,-0.264584 0.2802,-0.264584 0.15412,0 0.20661,0.119063 0.11668,0.264584 -0.0899,0.14552 -0.21603,0.264583 -0.2802,0.264583 -0.0642,0 -0.11668,-0.119063 -0.11668,-0.264583 z M 291.76914,89.656006 c 0.1819,-0.0734 0.47956,-0.0734 0.66146,0 0.1819,0.0734 0.0331,0.133456 -0.33073,0.133456 -0.3638,0 -0.51263,-0.06006 -0.33073,-0.133456 z m 158.28699,-7.333007 c 0,-0.05493 0.20836,-0.263286 0.46302,-0.46302 0.41966,-0.329089 0.429,-0.319749 0.0999,0.09991 -0.34566,0.440717 -0.56293,0.580893 -0.56293,0.363114 z m -178.9214,-10.93515 c 0.32911,-0.06329 0.80536,-0.06088 1.05833,0.0053 0.25297,0.06623 -0.0163,0.118004 -0.5984,0.115067 -0.58208,-0.0029 -0.78905,-0.05712 -0.45993,-0.120412 z M 225.6557,67.672385 c -0.32911,-0.419656 -0.31975,-0.428996 0.0999,-0.09991 0.44073,0.345652 0.58089,0.562927 0.36312,0.562927 -0.0549,0 -0.2633,-0.208359 -0.46302,-0.46302 z M 468.38445,15.218736 c 0,-0.654844 0.0516,-0.922734 0.11465,-0.595312 0.0631,0.327421 0.0631,0.863203 0,1.190625 -0.063,0.327422 -0.11465,0.05953 -0.11465,-0.595313 z M 216.44992,12.683147 c 0.0127,-0.308227 0.0754,-0.37092 0.15985,-0.159854 0.0764,0.190995 0.067,0.419201 -0.0209,0.507119 -0.0879,0.08792 -0.15045,-0.06835 -0.13897,-0.347265 z m 251.93453,-1.962328 c 0,-0.654844 0.0516,-0.9227342 0.11465,-0.595312 0.0631,0.327422 0.0631,0.863203 0,1.190625 -0.063,0.327422 -0.11465,0.05953 -0.11465,-0.595313 z M 216.47081,8.0749858 c 0,-0.3638021 0.0601,-0.5126303 0.13345,-0.3307292 0.0734,0.181901 0.0734,0.4795573 0,0.6614584 -0.0734,0.181901 -0.13345,0.033073 -0.13345,-0.3307292 z m 96.81662,-18.1460068 c 0.0127,-0.308227 0.0754,-0.37092 0.15985,-0.159854 0.0764,0.190995 0.067,0.4192011 -0.0209,0.5071195 -0.0879,0.087918 -0.15045,-0.068353 -0.13896,-0.3472655 z m -15.05056,-3.417536 c 0.005,-0.436562 0.0647,-0.583126 0.13177,-0.325694 0.0671,0.257432 0.0627,0.614619 -0.01,0.79375 -0.0725,0.179131 -0.12737,-0.03149 -0.12197,-0.468056 z m 15.3867,-5.423959 c 0,-1.236927 0.0456,-1.742942 0.10128,-1.124479 0.0557,0.618464 0.0557,1.630495 0,2.248959 -0.0557,0.618463 -0.10128,0.112448 -0.10128,-1.12448 z m -94.52781,-0.683506 c 0.0127,-0.308226 0.0754,-0.370919 0.15985,-0.159853 0.0764,0.190995 0.067,0.419201 -0.0209,0.507119 -0.0879,0.08792 -0.15045,-0.06835 -0.13896,-0.347266 z m 79.1313,-4.872744 c 0,-0.363802 0.0601,-0.51263 0.13346,-0.330729 0.0734,0.181901 0.0734,0.479557 0,0.661458 -0.0734,0.181901 -0.13346,0.03307 -0.13346,-0.330729 z m -78.86672,-0.154339 c 0.0127,-0.308227 0.0754,-0.37092 0.15985,-0.159854 0.0764,0.190995 0.067,0.419201 -0.0209,0.507119 -0.0879,0.08792 -0.15046,-0.06835 -0.13897,-0.347265 z m -15.06036,-4.608161 c 0,-0.363802 0.06,-0.51263 0.13345,-0.330729 0.0734,0.181901 0.0734,0.479557 0,0.661458 -0.0734,0.181901 -0.13345,0.03307 -0.13345,-0.330729 z m 260.08543,-3.96875 c 0,-0.363802 0.0601,-0.51263 0.13345,-0.330729 0.0734,0.181901 0.0734,0.479557 0,0.661458 -0.0734,0.181901 -0.13345,0.03307 -0.13345,-0.330729 z m -244.7057,-1.190625 c 0.002,-0.727605 0.0534,-0.993857 0.11419,-0.591675 0.0608,0.402183 0.0592,0.997495 -0.004,1.322917 -0.0628,0.325422 -0.11256,-0.0036 -0.11058,-0.731242 z m 0.004,-8.069792 c 0,-0.800365 0.0496,-1.127787 0.11022,-0.727605 0.0606,0.400183 0.0606,1.055027 0,1.455209 -0.0606,0.400182 -0.11022,0.07276 -0.11022,-0.727604 z m 244.68118,-0.683506 c 0.0127,-0.308227 0.0754,-0.37092 0.15986,-0.159854 0.0764,0.190995 0.067,0.419201 -0.0209,0.507119 -0.0879,0.08792 -0.15047,-0.06835 -0.13898,-0.347265 z m -260.05471,-4.47587 c 0.005,-0.436562 0.0647,-0.583125 0.13178,-0.325694 0.0671,0.257432 0.0627,0.614619 -0.01,0.79375 -0.0725,0.179131 -0.12736,-0.03149 -0.12197,-0.468056 z m 15.07145,-4.894792 c 0,-0.363802 0.0601,-0.51263 0.13345,-0.330729 0.0734,0.181901 0.0734,0.479558 0,0.661459 -0.0734,0.181901 -0.13345,0.03307 -0.13345,-0.33073 z m -15.36672,-2.271006 c 0.0127,-0.308226 0.0754,-0.370919 0.15985,-0.159853 0.0764,0.190995 0.067,0.419201 -0.0209,0.507119 -0.0879,0.08792 -0.15045,-0.06835 -0.13896,-0.347266 z m 15.08125,-3.439583 c 0.0127,-0.308227 0.0754,-0.37092 0.15985,-0.159854 0.0764,0.190995 0.067,0.419201 -0.0209,0.507119 -0.0879,0.08792 -0.15045,-0.06835 -0.13896,-0.347265 z m 199.49583,-0.264584 c 0.0127,-0.308226 0.0754,-0.370919 0.15986,-0.159853 0.0764,0.190995 0.067,0.419201 -0.0209,0.507119 -0.0879,0.08792 -0.15047,-0.06835 -0.13899,-0.347266 z M 203.74992,-59.81269 c 0.0127,-0.308227 0.0754,-0.37092 0.15985,-0.159854 0.0764,0.190995 0.067,0.419201 -0.0209,0.507119 -0.0879,0.08792 -0.15045,-0.06835 -0.13897,-0.347265 z m 199.55965,-1.962328 c 0,-0.945885 0.048,-1.332838 0.10671,-0.859896 0.0587,0.472943 0.0587,1.246849 0,1.719792 -0.0587,0.472943 -0.10671,0.08599 -0.10671,-0.859896 z m -120.33782,-2.38125 c 0.26339,-0.291041 0.53842,-0.529166 0.61118,-0.529166 0.0728,0 -0.0832,0.238125 -0.3466,0.529166 -0.26339,0.291042 -0.53842,0.529167 -0.61118,0.529167 -0.0728,0 0.0832,-0.238125 0.3466,-0.529167 z m -79.48641,-0.418923 c 0.0127,-0.308226 0.0754,-0.370919 0.15985,-0.159853 0.0764,0.190995 0.067,0.419201 -0.0209,0.507119 -0.0879,0.08792 -0.15046,-0.06835 -0.13897,-0.347266 z m 215.10625,-0.264583 c 0.0127,-0.308226 0.0754,-0.370919 0.15986,-0.159853 0.0764,0.190995 0.067,0.4192 -0.0209,0.507119 -0.0879,0.08792 -0.15047,-0.06835 -0.13899,-0.347266 z m -200.025,-2.910417 c 0.0127,-0.308226 0.0754,-0.370919 0.15985,-0.159853 0.0764,0.190995 0.067,0.419201 -0.0209,0.507119 -0.0879,0.08792 -0.15046,-0.06835 -0.13897,-0.347266 z m 67.23486,-1.565452 c 0.005,-0.436563 0.0647,-0.583126 0.13178,-0.325694 0.0671,0.257431 0.0627,0.614619 -0.01,0.79375 -0.0725,0.179131 -0.12736,-0.03149 -0.12197,-0.468056 z m -82.55981,-0.396875 c 0,-0.363802 0.0601,-0.51263 0.13346,-0.330729 0.0734,0.181901 0.0734,0.479557 0,0.661458 -0.0734,0.181901 -0.13346,0.03307 -0.13346,-0.330729 z m 248.40199,-0.926042 c 0.34176,-0.363802 0.68093,-0.661458 0.75369,-0.661458 0.0728,0 -0.14735,0.297656 -0.48911,0.661458 -0.34176,0.363802 -0.68093,0.661459 -0.75369,0.661459 -0.0728,0 0.14735,-0.297657 0.48911,-0.661459 z m -248.37704,-5.291667 c 0.003,-0.582083 0.0571,-0.789053 0.12041,-0.459936 0.0633,0.329118 0.0609,0.805368 -0.005,1.058334 -0.0662,0.252965 -0.118,-0.01632 -0.11506,-0.598398 z m 63.38367,-2.165114 c 0.191,-0.07643 0.4192,-0.06703 0.50712,0.02088 0.0879,0.08792 -0.0684,0.150453 -0.34727,0.138965 -0.30822,-0.0127 -0.37091,-0.07539 -0.15985,-0.159851 z m 3.175,0 c 0.191,-0.07643 0.4192,-0.06703 0.50712,0.02088 0.0879,0.08792 -0.0684,0.150453 -0.34726,0.138965 -0.30823,-0.0127 -0.37092,-0.07539 -0.15986,-0.159851 z m -66.33992,-4.7361 c 0.0127,-0.308227 0.0754,-0.37092 0.15985,-0.159854 0.0764,0.190995 0.067,0.419201 -0.0209,0.507119 -0.0879,0.08792 -0.15046,-0.06835 -0.13897,-0.347265 z m 265.64167,-1.587501 c 0.0127,-0.308226 0.0754,-0.370919 0.15986,-0.159853 0.0764,0.190995 0.067,0.419201 -0.0209,0.507119 -0.0879,0.08792 -0.15046,-0.06835 -0.13898,-0.347266 z m 15.40695,-3.417535 c 0.003,-0.873125 0.0509,-1.198415 0.10975,-0.722866 0.0589,0.475549 0.0577,1.189924 -0.003,1.5875 -0.0603,0.397576 -0.10853,0.0085 -0.10705,-0.864634 z m -26.32536,-1.106782 c 0.19101,-0.07643 0.41921,-0.06703 0.50713,0.02088 0.0879,0.08792 -0.0684,0.150453 -0.34727,0.138965 -0.30823,-0.0127 -0.37091,-0.07539 -0.15986,-0.159851 z m -161.75555,-1.737489 -1.04589,-1.124479 1.12448,1.045884 c 1.04576,0.972662 1.24607,1.203074 1.04589,1.203074 -0.0432,0 -0.54925,-0.506016 -1.12448,-1.124479 z m 188.04069,-0.992188 c 0,-0.363802 0.0601,-0.51263 0.13346,-0.330729 0.0734,0.181901 0.0734,0.479557 0,0.661458 -0.0734,0.181901 -0.13346,0.03307 -0.13346,-0.330729 z m 0.27437,-4.101042 c 0.005,-0.436562 0.0647,-0.583125 0.13179,-0.325694 0.0671,0.257432 0.0627,0.614619 -0.01,0.79375 -0.0725,0.179131 -0.12734,-0.03149 -0.12197,-0.468056 z M 81.247835,-96.325192 c 0.0127,-0.308226 0.07539,-0.370919 0.159851,-0.159853 0.07643,0.190994 0.06703,0.4192 -0.02088,0.507119 -0.08792,0.08792 -0.150453,-0.06835 -0.138965,-0.347266 z M 65.902,-100.29394 c 0.01269,-0.30823 0.07539,-0.37092 0.159853,-0.15986 0.07643,0.191 0.06703,0.4192 -0.02089,0.507123 -0.08792,0.08792 -0.150453,-0.06835 -0.138965,-0.347263 z m -14.816667,-1.05834 c 0.0127,-0.30822 0.07539,-0.37092 0.159852,-0.15985 0.07643,0.191 0.06703,0.4192 -0.02089,0.50712 -0.08792,0.0879 -0.150453,-0.0683 -0.138964,-0.34727 z m 212.389927,-0.29098 c 0.191,-0.0764 0.4192,-0.067 0.50712,0.0209 0.0879,0.0879 -0.0683,0.15045 -0.34727,0.13896 -0.30822,-0.0127 -0.37091,-0.0754 -0.15985,-0.15985 z m -182.437224,-2.59738 c 0.0021,-0.72761 0.05337,-0.99386 0.114186,-0.59168 0.06082,0.40218 0.05919,0.9975 -0.0036,1.32292 -0.0628,0.32542 -0.112559,-0.004 -0.110575,-0.73124 z m 371.994654,-0.0572 c 0.40018,-0.0606 1.05503,-0.0606 1.45521,0 0.40018,0.0606 0.0728,0.11022 -0.7276,0.11022 -0.80037,0 -1.12779,-0.0496 -0.72761,-0.11022 z M 81.038036,-111.3844 c 0.0021,-0.7276 0.05337,-0.99385 0.114186,-0.59167 0.06082,0.40218 0.05919,0.9975 -0.0036,1.32292 -0.0628,0.32542 -0.112559,-0.004 -0.110575,-0.73125 z m -29.952703,-1.60954 c 0.0127,-0.30823 0.07539,-0.37092 0.159852,-0.15986 0.07643,0.191 0.06703,0.4192 -0.02089,0.50712 -0.08792,0.0879 -0.150453,-0.0683 -0.138964,-0.34726 z M 65.902,-115.37519 c 0.01269,-0.30823 0.07539,-0.37092 0.159853,-0.15986 0.07643,0.191 0.06703,0.4192 -0.02089,0.50712 -0.08792,0.0879 -0.150453,-0.0683 -0.138965,-0.34726 z m 15.345835,-3.70417 c 0.0127,-0.30823 0.07539,-0.37092 0.159851,-0.15985 0.07643,0.19099 0.06703,0.4192 -0.02088,0.50712 -0.08792,0.0879 -0.150453,-0.0684 -0.138965,-0.34727 z m 461.464035,-12.41337 c 0.005,-0.43656 0.0647,-0.58313 0.13179,-0.32569 0.0671,0.25743 0.0627,0.61462 -0.01,0.79375 -0.0725,0.17913 -0.12735,-0.0315 -0.12198,-0.46806 z m -0.01,-7.80521 c 0,-0.3638 0.0601,-0.51263 0.13345,-0.33073 0.0734,0.1819 0.0734,0.47956 0,0.66146 -0.0734,0.1819 -0.13345,0.0331 -0.13345,-0.33073 z m -110.93596,-22.42344 c -0.32909,-0.41964 -0.31975,-0.429 0.0999,-0.0999 0.44072,0.34564 0.5809,0.56291 0.36312,0.56291 -0.0549,0 -0.26329,-0.20836 -0.46302,-0.46302 z m 5.96175,-15.74271 -0.50403,-0.59531 0.59531,0.50403 c 0.55943,0.47366 0.71575,0.6866 0.50403,0.6866 -0.0502,0 -0.31811,-0.26789 -0.59531,-0.59532 z m -181.21446,-6.28385 c 0.71667,-0.7276 1.36256,-1.32292 1.43532,-1.32292 0.0728,0 -0.45407,0.59532 -1.17073,1.32292 -0.71667,0.7276 -1.36256,1.32292 -1.43532,1.32292 -0.0728,0 0.45407,-0.59532 1.17073,-1.32292 z M 95.249863,-195.78648 c 0.341776,-0.3638 0.68094,-0.66146 0.7537,-0.66146 0.07276,0 -0.147341,0.29766 -0.489116,0.66146 -0.341776,0.3638 -0.68094,0.66146 -0.7537,0.66146 -0.07276,0 0.147341,-0.29766 0.489116,-0.66146 z m 88.850397,-11.9547 c 0.19099,-0.0764 0.4192,-0.067 0.50712,0.0209 0.0879,0.0879 -0.0684,0.15046 -0.34727,0.13897 -0.30823,-0.0127 -0.37092,-0.0754 -0.15985,-0.15985 z m -16.68529,-0.25907 c 0.1819,-0.0734 0.47956,-0.0734 0.66146,0 0.1819,0.0734 0.0331,0.13345 -0.33073,0.13345 -0.3638,0 -0.51263,-0.0601 -0.33073,-0.13345 z m 11.12904,-0.006 c 0.19099,-0.0764 0.4192,-0.067 0.50712,0.0209 0.0879,0.0879 -0.0684,0.15045 -0.34727,0.13896 -0.30823,-0.0127 -0.37092,-0.0754 -0.15985,-0.15985 z m 237.59584,-6.61458 c 0.191,-0.0764 0.41921,-0.067 0.50713,0.0209 0.0879,0.0879 -0.0684,0.15045 -0.34727,0.13896 -0.30824,-0.0127 -0.37092,-0.0754 -0.15986,-0.15985 z m 4.7625,-0.26458 c 0.191,-0.0764 0.41921,-0.067 0.50713,0.0209 0.0879,0.0879 -0.0684,0.15045 -0.34727,0.13897 -0.30824,-0.0127 -0.37092,-0.0754 -0.15986,-0.15985 z m 15.85847,0.005 c 0.1819,-0.0734 0.47955,-0.0734 0.66145,0 0.18191,0.0734 0.0331,0.13345 -0.33072,0.13345 -0.36381,0 -0.51264,-0.06 -0.33073,-0.13345 z m -117.72306,-9.53051 c 0.19101,-0.0764 0.41921,-0.067 0.50713,0.0209 0.0879,0.0879 -0.0684,0.15045 -0.34726,0.13896 -0.30824,-0.0127 -0.37092,-0.0754 -0.15987,-0.15985 z m 7.9375,0 c 0.19101,-0.0764 0.41921,-0.067 0.50713,0.0209 0.0879,0.0879 -0.0684,0.15045 -0.34726,0.13896 -0.30824,-0.0127 -0.37092,-0.0754 -0.15987,-0.15985 z m 102.6449,-5.82723 c 0.32912,-0.0633 0.80537,-0.0609 1.05833,0.005 0.25295,0.0662 -0.0164,0.11801 -0.5984,0.11507 -0.58209,-0.003 -0.78907,-0.0571 -0.45993,-0.12041 z m -258.36873,-7.139 c 0.25466,-0.0666 0.67138,-0.0666 0.92604,0 0.25466,0.0666 0.0463,0.121 -0.46302,0.121 -0.50932,0 -0.71768,-0.0545 -0.46302,-0.121 z m 2.91545,-9.8e-4 c 0.25743,-0.0671 0.61462,-0.0627 0.79375,0.01 0.17913,0.0725 -0.0315,0.12737 -0.46805,0.12197 -0.43657,-0.005 -0.58313,-0.0647 -0.3257,-0.13177 z m 247.00006,-7.14113 c 0.191,-0.0764 0.4192,-0.067 0.50712,0.0209 0.0879,0.0879 -0.0684,0.15045 -0.34726,0.13897 -0.30824,-0.0127 -0.37092,-0.0754 -0.15986,-0.15986 z"
           id="path980" /><path
           style="fill:#8c8c8c;fill-opacity:1;stroke-width:0.264583"
           d="m 364.66185,282.52298 c 0.40019,-0.0606 1.05503,-0.0606 1.45521,0 0.40019,0.0606 0.0728,0.11022 -0.7276,0.11022 -0.80037,0 -1.12779,-0.0496 -0.72761,-0.11022 z m 4.11758,-15.33705 c 0.19101,-0.0764 0.41921,-0.067 0.50713,0.0209 0.0879,0.0879 -0.0684,0.15047 -0.34727,0.13899 -0.30824,-0.0127 -0.37092,-0.0754 -0.15986,-0.15987 z m -29.99306,-9.93958 -1.04587,-1.12448 1.12448,1.04587 c 1.04576,0.97267 1.24605,1.20309 1.04587,1.20309 -0.0432,0 -0.54922,-0.50601 -1.12448,-1.12448 z M 321.4895,200.53733 c 0.0127,-0.30824 0.0754,-0.37092 0.15986,-0.15986 0.0764,0.191 0.067,0.41921 -0.0209,0.50713 -0.0879,0.0879 -0.15047,-0.0684 -0.13899,-0.34727 z m -0.26458,-4.23333 c 0.0127,-0.30824 0.0754,-0.37092 0.15986,-0.15986 0.0764,0.191 0.067,0.4192 -0.0209,0.50712 -0.0879,0.0879 -0.15046,-0.0684 -0.13898,-0.34726 z m -0.26459,-5.55625 c 0.0127,-0.30824 0.0754,-0.37092 0.15986,-0.15986 0.0764,0.191 0.067,0.4192 -0.0209,0.50712 -0.0879,0.0879 -0.15047,-0.0684 -0.13898,-0.34726 z m -0.24368,-6.19567 c 0,-0.3638 0.0601,-0.51263 0.13346,-0.33073 0.0734,0.1819 0.0734,0.47956 0,0.66146 -0.0734,0.1819 -0.13346,0.0331 -0.13346,-0.33073 z m -27.27297,-5.97517 c 0.0127,-0.30824 0.0754,-0.37092 0.15985,-0.15986 0.0764,0.191 0.067,0.41921 -0.0209,0.50713 -0.0879,0.0879 -0.15045,-0.0684 -0.13896,-0.34727 z m 27.01818,-1.56546 c 0.005,-0.43656 0.0647,-0.58311 0.13179,-0.3257 0.0671,0.25744 0.0627,0.61463 -0.01,0.79375 -0.0725,0.17915 -0.12735,-0.0315 -0.12198,-0.46805 z m -15.37652,-4.25537 c 0.0127,-0.30824 0.0754,-0.37092 0.15986,-0.15986 0.0764,0.191 0.067,0.4192 -0.0209,0.50712 -0.0879,0.0879 -0.15045,-0.0684 -0.13896,-0.34726 z m -11.90625,-2.11667 c 0.0127,-0.30824 0.0754,-0.37092 0.15985,-0.15986 0.0764,0.191 0.067,0.41921 -0.0209,0.50713 -0.0879,0.0879 -0.15045,-0.0684 -0.13897,-0.34727 z m 27.03869,-4.87275 c 0,-0.65484 0.0516,-0.92273 0.11464,-0.59531 0.0631,0.32742 0.0631,0.8632 0,1.19062 -0.0631,0.32742 -0.11464,0.0595 -0.11464,-0.59531 z M 292.91451,161.379 c 0.0127,-0.30824 0.0754,-0.37092 0.15985,-0.15987 0.0764,0.19101 0.067,0.41921 -0.0209,0.50713 -0.0879,0.0879 -0.15046,-0.0684 -0.13897,-0.34726 z m 11.95209,-2.35922 c 0.003,-0.58208 0.0571,-0.78906 0.1204,-0.45992 0.0633,0.32911 0.0609,0.80536 -0.005,1.05833 -0.0662,0.25294 -0.11801,-0.0164 -0.11507,-0.59841 z m 161.08541,-4.51995 c 0.0127,-0.30824 0.0754,-0.37092 0.15986,-0.15986 0.0764,0.191 0.067,0.4192 -0.0209,0.50712 -0.0879,0.0879 -0.15046,-0.0684 -0.13898,-0.34726 z m 7.32131,-10.07507 c 0.1819,-0.0734 0.47955,-0.0734 0.66146,0 0.1819,0.0734 0.0331,0.13345 -0.33073,0.13345 -0.36381,0 -0.51263,-0.0601 -0.33073,-0.13345 z m 7.67291,0 c 0.18191,-0.0734 0.47956,-0.0734 0.66146,0 0.1819,0.0734 0.0331,0.13345 -0.33073,0.13345 -0.3638,0 -0.51263,-0.0601 -0.33073,-0.13345 z m -349.32861,-3.3305 -1.04588,-1.12448 1.12448,1.04588 c 0.61846,0.57525 1.12448,1.08127 1.12448,1.12447 0,0.20019 -0.23041,-1e-4 -1.20308,-1.04587 z m 343.11593,-12.55262 c 0.25744,-0.0671 0.61463,-0.0627 0.79375,0.01 0.17915,0.0725 -0.0315,0.12734 -0.46804,0.12197 -0.43657,-0.005 -0.58312,-0.0647 -0.32571,-0.13179 z m 4.11255,0.003 c 0.19101,-0.0764 0.41921,-0.067 0.50713,0.0209 0.0879,0.0879 -0.0684,0.15047 -0.34726,0.13899 -0.30824,-0.0127 -0.37092,-0.0754 -0.15987,-0.15986 z m -294.70729,-8.88127 c 1.09642,-1.16819 1.33397,-1.37824 1.33397,-1.17956 0,0.0425 -0.56554,0.60801 -1.25677,1.25677 l -1.25677,1.17956 z m 136.08257,-0.0661 c 0.003,-0.72761 0.0534,-0.99386 0.11419,-0.59169 0.0608,0.40219 0.0592,0.9975 -0.004,1.32292 -0.0628,0.32543 -0.11256,-0.004 -0.11057,-0.73123 z m -24.81422,0.39687 c 0.26339,-0.29104 0.53843,-0.52917 0.61119,-0.52917 0.0728,0 -0.0832,0.23813 -0.3466,0.52917 -0.26339,0.29104 -0.53842,0.52917 -0.61119,0.52917 -0.0728,0 0.0832,-0.23813 0.3466,-0.52917 z m 2.38125,-2.38125 c 0.26339,-0.29104 0.53843,-0.52917 0.61119,-0.52917 0.0728,0 -0.0832,0.23813 -0.3466,0.52917 -0.26339,0.29104 -0.53842,0.52917 -0.61118,0.52917 -0.0728,0 0.0832,-0.23813 0.34659,-0.52917 z m 173.91394,-4.41407 c 0.19101,-0.0764 0.41921,-0.067 0.50713,0.0209 0.0879,0.0879 -0.0684,0.15047 -0.34726,0.13899 -0.30824,-0.0127 -0.37092,-0.0754 -0.15987,-0.15986 z m 10.58334,0 c 0.191,-0.0764 0.4192,-0.067 0.50712,0.0209 0.0879,0.0879 -0.0684,0.15047 -0.34726,0.13899 -0.30824,-0.0127 -0.37092,-0.0754 -0.15986,-0.15986 z m -40.37026,-2.4651 c 0,-0.50932 0.0544,-0.71768 0.12099,-0.46302 0.0666,0.25466 0.0666,0.67138 0,0.92605 -0.0665,0.25466 -0.12099,0.0463 -0.12099,-0.46303 z m -121.45357,-3.30729 c 0.005,-0.43656 0.0647,-0.58311 0.13179,-0.3257 0.0671,0.25744 0.0627,0.61463 -0.01,0.79375 -0.0725,0.17915 -0.12735,-0.0315 -0.12198,-0.46805 z m 121.41306,-2.93245 c 0.0127,-0.30824 0.0754,-0.37092 0.15986,-0.15987 0.0764,0.19101 0.067,0.41921 -0.0209,0.50713 -0.0879,0.0879 -0.15047,-0.0684 -0.13899,-0.34726 z m 9.37183,-23.393591 c 0.2634,-0.291041 0.53843,-0.529166 0.61119,-0.529166 0.0728,0 -0.0832,0.238125 -0.3466,0.529166 -0.2634,0.291042 -0.53843,0.529167 -0.61119,0.529167 -0.0728,0 0.0832,-0.238125 0.3466,-0.529167 z M 219.07487,79.677166 c 0,-0.05493 0.20836,-0.263287 0.46302,-0.463021 0.41964,-0.329089 0.429,-0.319749 0.0999,0.09991 -0.34565,0.440716 -0.56292,0.580893 -0.56292,0.363114 z m 2.91042,-3.175 c 0,-0.05493 0.20836,-0.263287 0.46302,-0.463021 0.41964,-0.329089 0.429,-0.319749 0.0999,0.09991 -0.34564,0.440716 -0.56291,0.580892 -0.56291,0.363114 z m 3.175,-3.439584 c 0,-0.05493 0.20836,-0.263287 0.46302,-0.463021 0.41964,-0.329088 0.429,-0.319749 0.0999,0.09991 -0.34564,0.440717 -0.56291,0.580893 -0.56291,0.363114 z m -3.73792,-9.623531 c -0.32911,-0.419656 -0.31975,-0.428995 0.0999,-0.09991 0.25467,0.199734 0.46303,0.408094 0.46303,0.463021 0,0.217779 -0.21728,0.0776 -0.56292,-0.363114 z M 468.38805,12.969778 c 0.003,-0.727605 0.0534,-0.993857 0.11419,-0.591675 0.0608,0.402183 0.0592,0.997495 -0.004,1.322917 -0.0628,0.325422 -0.11255,-0.0036 -0.11057,-0.731242 z M 216.51799,10.456236 c 0,-1.0914064 0.0467,-1.5378908 0.10379,-0.9921877 0.0571,0.5457027 0.0571,1.4386717 0,1.9843747 -0.0571,0.545704 -0.10379,0.09922 -0.10379,-0.992187 z M 483.41451,5.2748129 c 0.0127,-0.3082264 0.0754,-0.3709194 0.15986,-0.1598533 0.0764,0.1909948 0.067,0.4192005 -0.0209,0.5071189 -0.0879,0.087918 -0.15047,-0.068352 -0.13899,-0.3472656 z M 313.28743,-9.2772711 c 0.0127,-0.3082264 0.0754,-0.3709194 0.15985,-0.1598534 0.0764,0.1909948 0.067,0.4192006 -0.0209,0.507119 -0.0879,0.087918 -0.15045,-0.068352 -0.13896,-0.3472656 z m -15.05056,-5.5342029 c 0.005,-0.436562 0.0647,-0.583126 0.13177,-0.325694 0.0671,0.257432 0.0627,0.614619 -0.01,0.79375 -0.0725,0.179131 -0.12737,-0.03149 -0.12197,-0.468056 z m 15.35564,-1.190625 c 0,-0.509323 0.0544,-0.717682 0.121,-0.463021 0.0666,0.254662 0.0666,0.671381 0,0.926042 -0.0666,0.254662 -0.121,0.0463 -0.121,-0.463021 z m 0.0107,-6.085417 c 0,-0.654843 0.0516,-0.922734 0.11466,-0.595312 0.0631,0.327422 0.0631,0.863203 0,1.190625 -0.0631,0.327422 -0.11466,0.05953 -0.11466,-0.595313 z m -15.36632,-1.190625 c 0.005,-0.436562 0.0647,-0.583126 0.13177,-0.325694 0.0671,0.257432 0.0627,0.614619 -0.01,0.79375 -0.0725,0.179131 -0.12737,-0.03149 -0.12197,-0.468056 z m -94.22236,-0.286631 c 0.0127,-0.308226 0.0754,-0.370919 0.15985,-0.159853 0.0764,0.190995 0.067,0.4192 -0.0209,0.507119 -0.0879,0.08792 -0.15045,-0.06835 -0.13896,-0.347266 z m 15.34583,-0.264583 c 0.0127,-0.308227 0.0754,-0.37092 0.15985,-0.159854 0.0764,0.190995 0.067,0.419201 -0.0209,0.507119 -0.0879,0.08792 -0.15046,-0.06835 -0.13897,-0.347265 z m 93.92709,-5.291667 c 0.0127,-0.308226 0.0754,-0.37092 0.15985,-0.159853 0.0764,0.190994 0.067,0.4192 -0.0209,0.507119 -0.0879,0.08792 -0.15045,-0.06835 -0.13896,-0.347266 z m -108.96786,-1.433161 c 0,-0.509323 0.0545,-0.717682 0.12101,-0.463021 0.0665,0.254662 0.0665,0.671381 0,0.926042 -0.0665,0.254662 -0.12101,0.0463 -0.12101,-0.463021 z m 15.36013,-1.455208 c 0.002,-0.727604 0.0534,-0.993857 0.11419,-0.591675 0.0608,0.402183 0.0592,0.997495 -0.004,1.322917 -0.0628,0.325422 -0.11256,-0.0036 -0.11058,-0.731242 z m 244.6848,-0.286631 c 0.0127,-0.308227 0.0754,-0.37092 0.15986,-0.159854 0.0764,0.190995 0.067,0.419201 -0.0209,0.507119 -0.0879,0.08792 -0.15046,-0.06835 -0.13898,-0.347265 z m 0,-11.641668 c 0.0127,-0.308226 0.0754,-0.370919 0.15986,-0.159853 0.0764,0.190995 0.067,0.419201 -0.0209,0.507119 -0.0879,0.08792 -0.15046,-0.06835 -0.13898,-0.347266 z m -244.6848,-1.036285 c 0.002,-0.727604 0.0534,-0.993857 0.11419,-0.591675 0.0608,0.402183 0.0592,0.997495 -0.004,1.322917 -0.0628,0.325422 -0.11256,-0.0036 -0.11058,-0.731242 z m 260.03063,0.771702 c 0.0127,-0.308226 0.0754,-0.370919 0.15986,-0.159853 0.0764,0.190995 0.067,0.4192 -0.0209,0.507119 -0.0879,0.08792 -0.15047,-0.06835 -0.13899,-0.347266 z m -275.40056,-2.094619 c 0.005,-0.436562 0.0647,-0.583126 0.13178,-0.325694 0.0671,0.257432 0.0627,0.614619 -0.01,0.79375 -0.0725,0.179131 -0.12736,-0.03149 -0.12197,-0.468056 z m 15.07145,-7.276042 c 0,-0.363802 0.0601,-0.51263 0.13345,-0.330729 0.0734,0.181901 0.0734,0.479557 0,0.661458 -0.0734,0.181901 -0.13345,0.03307 -0.13345,-0.330729 z m -15.36672,-0.418923 c 0.0127,-0.308226 0.0754,-0.370919 0.15985,-0.159853 0.0764,0.190995 0.067,0.419201 -0.0209,0.507119 -0.0879,0.08792 -0.15045,-0.06835 -0.13896,-0.347266 z m 15.08125,-5.027083 c 0.0127,-0.308227 0.0754,-0.37092 0.15985,-0.159854 0.0764,0.190995 0.067,0.419201 -0.0209,0.507119 -0.0879,0.08792 -0.15045,-0.06835 -0.13896,-0.347265 z m 199.49583,-0.264584 c 0.0127,-0.308226 0.0754,-0.370919 0.15986,-0.159853 0.0764,0.190995 0.067,0.419201 -0.0209,0.507119 -0.0879,0.08792 -0.15047,-0.06835 -0.13899,-0.347266 z m -15.32494,-0.374827 c 0,-0.363802 0.0601,-0.51263 0.13346,-0.330729 0.0734,0.181901 0.0734,0.479557 0,0.661458 -0.0734,0.181901 -0.13346,0.03307 -0.13346,-0.330729 z M 218.83117,-63.78144 c 0.0127,-0.308227 0.0754,-0.37092 0.15986,-0.159854 0.0764,0.190995 0.067,0.419201 -0.0209,0.507119 -0.0879,0.08792 -0.15045,-0.06835 -0.13897,-0.347265 z m 184.41458,0 c 0.0127,-0.308227 0.0754,-0.37092 0.15986,-0.159854 0.0764,0.190995 0.067,0.419201 -0.0209,0.507119 -0.0879,0.08792 -0.15047,-0.06835 -0.13898,-0.347265 z m 15.34584,-0.264584 c 0.0127,-0.308226 0.0754,-0.370919 0.15986,-0.159853 0.0764,0.190995 0.067,0.4192 -0.0209,0.507119 -0.0879,0.08792 -0.15047,-0.06835 -0.13899,-0.347266 z m -156.68797,-0.308681 c -0.32911,-0.419645 -0.31975,-0.429004 0.0999,-0.0999 0.25466,0.19972 0.46302,0.40808 0.46302,0.46302 0,0.217763 -0.21728,0.0776 -0.56292,-0.363124 z m -1.05833,-1.058334 c -0.32911,-0.419645 -0.31975,-0.429003 0.0999,-0.0999 0.25466,0.199721 0.46302,0.40808 0.46302,0.463021 0,0.217763 -0.21727,0.07761 -0.56291,-0.363125 z m -42.29959,-3.22553 c 0,-0.282453 0.10186,-0.576509 0.22636,-0.653452 0.1245,-0.07695 0.17015,0.154154 0.10145,0.513551 -0.14923,0.780643 -0.32781,0.856856 -0.32781,0.139901 z m -15.32494,-0.169955 c 0.0127,-0.308226 0.0754,-0.370919 0.15985,-0.159853 0.0764,0.190994 0.067,0.4192 -0.0209,0.507119 -0.0879,0.08792 -0.15045,-0.06835 -0.13896,-0.347266 z m 0.0307,-8.709203 c 0.005,-0.436562 0.0647,-0.583126 0.13177,-0.325694 0.0671,0.257432 0.0627,0.614619 -0.01,0.79375 -0.0725,0.179131 -0.12737,-0.03149 -0.12197,-0.468056 z m 265.89646,-7.805208 c 0,-0.363803 0.0601,-0.512631 0.13345,-0.33073 0.0734,0.181901 0.0734,0.479558 0,0.661459 -0.0734,0.181901 -0.13345,0.03307 -0.13345,-0.330729 z m 15.34583,-0.529167 c 0,-0.363802 0.0601,-0.51263 0.13346,-0.330729 0.0734,0.181901 0.0734,0.479557 0,0.661458 -0.0734,0.181901 -0.13346,0.03307 -0.13346,-0.330729 z m -34.63102,-3.093771 c 0.25744,-0.06708 0.61463,-0.06267 0.79375,0.0098 0.17915,0.07248 -0.0315,0.127363 -0.46805,0.121971 -0.43656,-0.0054 -0.58311,-0.06469 -0.3257,-0.131773 z m 7.14375,0 c 0.25744,-0.06708 0.61463,-0.06267 0.79375,0.0098 0.17915,0.07248 -0.0315,0.127363 -0.46805,0.121971 -0.43656,-0.0054 -0.58311,-0.06469 -0.3257,-0.131773 z m 27.46637,-3.675152 c 0.0127,-0.308227 0.0754,-0.37092 0.15986,-0.159854 0.0764,0.190995 0.067,0.419201 -0.0209,0.507119 -0.0879,0.08792 -0.15047,-0.06835 -0.13899,-0.347265 z M 81.247835,-97.118942 c 0.0127,-0.308227 0.07539,-0.37092 0.159851,-0.159853 0.07643,0.190994 0.06703,0.4192 -0.02088,0.507119 -0.08792,0.08792 -0.150453,-0.06835 -0.138965,-0.347266 z M 65.902,-99.500192 c 0.01269,-0.308227 0.07539,-0.37092 0.159853,-0.159854 0.07643,0.190995 0.06703,0.419201 -0.02089,0.507119 -0.08792,0.08792 -0.150453,-0.06835 -0.138965,-0.347265 z m 196.77951,-2.143068 c 0.191,-0.0764 0.4192,-0.067 0.50712,0.0209 0.0879,0.0879 -0.0684,0.15045 -0.34727,0.13896 -0.30822,-0.0127 -0.37091,-0.0754 -0.15985,-0.15985 z m 7.67292,0 c 0.19099,-0.0764 0.4192,-0.067 0.50712,0.0209 0.0879,0.0879 -0.0684,0.15045 -0.34727,0.13896 -0.30822,-0.0127 -0.37092,-0.0754 -0.15985,-0.15985 z m -219.248209,-0.61301 c 0,-0.3638 0.06005,-0.51263 0.133452,-0.33073 0.0734,0.1819 0.0734,0.47956 0,0.66146 -0.0734,0.1819 -0.133452,0.0331 -0.133452,-0.33073 z m 399.677509,-2.03881 c 0.32743,-0.0631 0.86321,-0.0631 1.19063,0 0.32742,0.0631 0.0595,0.11466 -0.59531,0.11466 -0.65485,0 -0.92274,-0.0516 -0.59532,-0.11466 z m 4.89842,-0.003 c 0.40219,-0.0608 0.99751,-0.0592 1.32292,0.004 0.32543,0.0628 -0.004,0.11256 -0.73123,0.11057 -0.72761,-0.002 -0.99386,-0.0534 -0.59169,-0.11418 z M 81.057745,-107.8124 c 0,-1.38245 0.04459,-1.94799 0.0991,-1.25677 0.0545,0.69122 0.0545,1.82232 0,2.51354 -0.0545,0.69122 -0.0991,0.12568 -0.0991,-1.25677 z m -29.951524,-4.23333 c 0,-0.36381 0.06005,-0.51263 0.133452,-0.33073 0.0734,0.1819 0.0734,0.47955 0,0.66146 -0.0734,0.1819 -0.133452,0.0331 -0.133452,-0.33073 z M 65.902,-116.16894 c 0.01269,-0.30823 0.07539,-0.37092 0.159853,-0.15986 0.07643,0.191 0.06703,0.4192 -0.02089,0.50712 -0.08792,0.0879 -0.150453,-0.0683 -0.138965,-0.34726 z m 15.345835,-2.11667 c 0.0127,-0.30823 0.07539,-0.37092 0.159851,-0.15985 0.07643,0.19099 0.06703,0.4192 -0.02088,0.50712 -0.08792,0.0879 -0.150453,-0.0684 -0.138965,-0.34727 z M 542.74229,-133.6094 c 0.003,-0.87312 0.0509,-1.19841 0.10975,-0.72286 0.0589,0.47555 0.0577,1.18992 -0.003,1.5875 -0.0603,0.39757 -0.10853,0.008 -0.10705,-0.86464 z m -0.01,-4.10104 c 0,-0.65484 0.0516,-0.92273 0.11465,-0.59531 0.0631,0.32742 0.0631,0.8632 0,1.19062 -0.0631,0.32743 -0.11465,0.0595 -0.11465,-0.59531 z m -108.84958,-21.62969 c -0.32909,-0.41964 -0.31975,-0.429 0.0999,-0.0999 0.44072,0.34564 0.5809,0.56291 0.36312,0.56291 -0.0549,0 -0.26329,-0.20836 -0.46302,-0.46302 z m -3.03409,-3.30729 -0.50403,-0.59531 0.59531,0.50403 c 0.55944,0.47366 0.71576,0.68659 0.50404,0.68659 -0.0502,0 -0.31811,-0.26789 -0.59532,-0.59531 z m -6.74177,-6.74687 -0.64142,-0.72761 0.7276,0.64143 c 0.40018,0.35279 0.7276,0.68022 0.7276,0.72761 0,0.20751 -0.21426,0.0386 -0.81378,-0.64143 z m 15.6214,-6.08542 -1.44616,-1.52136 1.52136,1.44618 c 1.41337,1.34353 1.64256,1.59653 1.44616,1.59653 -0.0413,0 -0.72594,-0.68461 -1.52136,-1.52135 z m 89.01621,0.66146 -0.50403,-0.59531 0.59531,0.50402 c 0.55944,0.47367 0.71575,0.6866 0.50403,0.6866 -0.0502,0 -0.3181,-0.26789 -0.59531,-0.59531 z m -92.46098,-4.10104 -0.9118,-0.99219 0.99218,0.9118 c 0.9235,0.84868 1.11385,1.07257 0.91181,1.07257 -0.0442,0 -0.4907,-0.44648 -0.99219,-0.99218 z m 85.97006,-2.38125 c -0.32909,-0.41965 -0.31975,-0.42901 0.0999,-0.0999 0.44072,0.34564 0.58089,0.56292 0.36311,0.56292 -0.0549,0 -0.26328,-0.20836 -0.46302,-0.46302 z m -90.22292,-1.5875 c -0.32909,-0.41965 -0.31975,-0.42901 0.0999,-0.0999 0.44072,0.34564 0.58089,0.56292 0.36311,0.56292 -0.0549,0 -0.26328,-0.20836 -0.46302,-0.46302 z M 93.926947,-194.43117 c 0,-0.0549 0.208359,-0.2633 0.46302,-0.46302 0.419646,-0.32911 0.429004,-0.31975 0.0999,0.0999 -0.345644,0.44073 -0.562917,0.58089 -0.562917,0.36313 z m 74.810943,-13.58058 c 0.32742,-0.0631 0.8632,-0.0631 1.19062,0 0.32742,0.0631 0.0595,0.11466 -0.59531,0.11466 -0.65484,0 -0.92273,-0.0516 -0.59531,-0.11466 z m 7.9375,0 c 0.32742,-0.0631 0.8632,-0.0631 1.19062,0 0.32742,0.0631 0.0595,0.11466 -0.59531,0.11466 -0.65484,0 -0.92273,-0.0516 -0.59531,-0.11466 z m 139.18737,-1.05235 c 0.19101,-0.0764 0.41921,-0.067 0.50713,0.0209 0.0879,0.0879 -0.0684,0.15045 -0.34726,0.13896 -0.30824,-0.0127 -0.37092,-0.0754 -0.15987,-0.15985 z m 14.81667,0 c 0.191,-0.0764 0.41921,-0.067 0.50713,0.0209 0.0879,0.0879 -0.0684,0.15045 -0.34727,0.13896 -0.30824,-0.0127 -0.37092,-0.0754 -0.15986,-0.15985 z m 91.13745,-5.82345 c 0.25744,-0.0671 0.61463,-0.0627 0.79375,0.01 0.17915,0.0725 -0.0315,0.12737 -0.46804,0.12197 -0.43657,-0.005 -0.58312,-0.0647 -0.32571,-0.13177 z m 13.8856,0.008 c 0.1819,-0.0734 0.47956,-0.0734 0.66146,0 0.1819,0.0734 0.0331,0.13345 -0.33073,0.13345 -0.3638,0 -0.51263,-0.06 -0.33073,-0.13345 z m -107.93347,-9.53051 c 0.19101,-0.0764 0.41921,-0.067 0.50713,0.0209 0.0879,0.0879 -0.0684,0.15045 -0.34726,0.13896 -0.30824,-0.0127 -0.37092,-0.0754 -0.15987,-0.15985 z m 99.20696,-5.83185 c 0.47556,-0.0589 1.18994,-0.0577 1.5875,0.003 0.39759,0.0604 0.008,0.10855 -0.86463,0.10707 -0.87313,-10e-4 -1.19841,-0.0509 -0.72287,-0.10977 z m 4.2286,0.0165 c 0.1819,-0.0734 0.47955,-0.0734 0.66145,0 0.18191,0.0734 0.0331,0.13345 -0.33073,0.13345 -0.3638,0 -0.51263,-0.0601 -0.33072,-0.13345 z m -258.36061,-7.15188 c 0.25744,-0.0671 0.61462,-0.0627 0.79375,0.01 0.17914,0.0725 -0.0315,0.12736 -0.46805,0.12197 -0.43656,-0.005 -0.58313,-0.0647 -0.3257,-0.13177 z m 159.15839,-1.3203 c 0.191,-0.0764 0.4192,-0.067 0.50712,0.0209 0.0879,0.0879 -0.0684,0.15045 -0.34726,0.13896 -0.30824,-0.0127 -0.37092,-0.0754 -0.15986,-0.15985 z m 89.95834,-5.82084 c 0.191,-0.0764 0.4192,-0.067 0.50712,0.0209 0.0879,0.0879 -0.0684,0.15045 -0.34726,0.13897 -0.30824,-0.0127 -0.37092,-0.0754 -0.15986,-0.15986 z m 14.81666,0 c 0.19101,-0.0764 0.41921,-0.067 0.50713,0.0209 0.0879,0.0879 -0.0684,0.15045 -0.34727,0.13897 -0.30824,-0.0127 -0.37092,-0.0754 -0.15986,-0.15986 z"
           id="path978" /><path
           style="fill:#ffffff;fill-opacity:1;stroke-width:0.264583"
           d="m 363.07938,282.52914 c 0.25744,-0.0671 0.61463,-0.0627 0.79375,0.01 0.17915,0.0725 -0.0315,0.12735 -0.46805,0.12198 -0.43656,-0.005 -0.58311,-0.0647 -0.3257,-0.13179 z m 3.83143,0.008 c 0.1819,-0.0734 0.47956,-0.0734 0.66146,0 0.1819,0.0734 0.0331,0.13345 -0.33073,0.13345 -0.3638,0 -0.51263,-0.0601 -0.33073,-0.13345 z m -6.68073,-15.43924 c -4.40306,-0.46783 -9.037,-1.77868 -12.59713,-3.56348 -5.94032,-2.97808 -11.09832,-7.96214 -15.20137,-14.68872 -2.73269,-4.48 -5.9468,-11.76097 -6.96785,-15.7843 -2.50103,-9.85523 -4.27115,-31.61824 -5.05384,-62.1355 -0.33387,-13.01869 -0.32967,-43.02929 0.008,-56.95963 0.258,-10.64358 0.25038,-10.9945 -0.29914,-13.75833 -2.16085,-10.868003 -8.86706,-19.679793 -17.83922,-23.44021 -4.17419,-1.749505 -5.9228,-2.13233 -9.78283,-2.141749 -1.89177,-0.0045 -3.81763,0.07612 -4.27969,0.17944 l -0.84011,0.187881 0.52267,-1.907673 c 1.81807,-6.635697 7.35492,-21.550763 11.21937,-30.222535 5.51512,-12.37586 7.7622,-18.235561 9.93598,-25.910079 6.26053,-22.1025091 6.15949,-48.727227 -0.30674,-80.844909 -1.37289,-6.819118 -1.96467,-9.155415 -3.08283,-12.170834 -4.41224,-11.898724 -12.52537,-19.855695 -23.98719,-23.525503 -4.79627,-1.535659 -8.00441,-1.963099 -14.84594,-1.978029 -4.53349,-0.01 -6.89512,0.10707 -9.26041,0.45861 -11.51757,1.711782 -23.68625,5.71256 -34.7749,11.433167 -1.80922,0.933368 -3.34346,1.643054 -3.40943,1.577078 -0.41549,-0.415481 1.87518,-17.146815 3.39257,-24.779745 8.38489,-42.17879 27.25808,-71.88953 54.62152,-85.98681 10.07201,-5.18896 19.89334,-8.09249 32.69003,-9.66433 2.99475,-0.36784 5.86817,-0.47302 13.09688,-0.4794 9.41945,-0.008 12.93286,0.19791 20.5949,1.20882 41.64399,5.4944 77.22415,27.90628 103.28834,65.06114 7.94998,11.33283 16.13611,26.84737 19.94746,37.80496 l 0.49557,1.42476 -1.1311,-0.15503 c -0.62211,-0.0853 -3.75483,-0.29655 -6.96161,-0.4695 -14.20712,-0.76625 -25.98407,1.14043 -35.21302,5.700975 -17.64507,8.719379 -24.20541,26.57183 -19.24392,52.367688 3.51346,18.26721 12.78081,40.5969596 29.16701,70.278237 7.46564,13.522908 8.9766,16.369216 10.464,19.711459 3.78339,8.501486 7.78696,14.852704 15.51091,24.606251 3.7881,4.783482 4.35459,5.588742 4.0526,5.760827 -0.11703,0.0667 -1.17118,0.436721 -2.34252,0.822272 -10.28739,3.386217 -16.75871,10.964757 -19.00483,22.256486 -0.60923,3.062685 -0.95769,7.372485 -0.95795,11.847965 0,5.31736 -1.68992,21.09134 -5.70275,53.23954 -4.67937,37.48791 -7.35746,55.21124 -9.6352,63.76458 -5.90098,22.15923 -17.1948,32.26343 -43.13518,38.59171 -8.9734,2.18911 -16.78276,2.95899 -23.15105,2.28237 z m -55.12385,-93.39395 c 0,-0.3638 0.0601,-0.51263 0.13345,-0.33073 0.0734,0.1819 0.0734,0.47956 0,0.66146 -0.0734,0.1819 -0.13345,0.0331 -0.13345,-0.33073 z m -11.90625,-3.96875 c 0,-0.3638 0.0601,-0.51263 0.13345,-0.33073 0.0734,0.1819 0.0734,0.47956 0,0.66146 -0.0734,0.1819 -0.13345,0.0331 -0.13345,-0.33073 z m 11.65147,-9.12813 c 0.005,-0.43656 0.0647,-0.58311 0.13178,-0.3257 0.0671,0.25744 0.0627,0.61463 -0.01,0.79375 -0.0725,0.17915 -0.12736,-0.0315 -0.12197,-0.46805 z m 161.10056,-6.9012 c 0.0127,-0.30824 0.0754,-0.37092 0.15986,-0.15986 0.0764,0.191 0.067,0.4192 -0.0209,0.50712 -0.0879,0.0879 -0.15046,-0.0684 -0.13898,-0.34726 z m 8.39618,-9.28682 c 0.191,-0.0764 0.4192,-0.067 0.50712,0.0209 0.0879,0.0879 -0.0684,0.15047 -0.34726,0.13898 -0.30824,-0.0127 -0.37092,-0.0754 -0.15986,-0.15986 z m 5.82083,0 c 0.191,-0.0764 0.41921,-0.067 0.50713,0.0209 0.0879,0.0879 -0.0684,0.15047 -0.34727,0.13898 -0.30824,-0.0127 -0.37092,-0.0754 -0.15986,-0.15986 z m -229.60873,-9.7766 c -5.47519,-0.50532 -13.18521,-1.98575 -17.08303,-3.28017 -2.69925,-0.89641 -6.77918,-2.86954 -6.9299,-3.35145 -0.14787,-0.47284 5.85209,-2.28253 11.7098,-3.53187 18.81303,-4.01246 26.41798,-7.13849 32.85972,-13.50701 1.23681,-1.22277 4.37747,-4.85777 6.97923,-8.07778 8.7852,-10.872787 10.77349,-12.773025 13.61108,-13.008345 1.70618,-0.141473 4.83055,0.8373 6.63446,2.078434 3.08154,2.12016 5.89256,6.722957 6.60436,10.814101 0.68056,3.91158 0.15975,5.87396 -2.49343,9.39523 -7.75391,10.29083 -17.71577,17.27186 -29.13813,20.41932 -5.62419,1.54977 -8.90955,1.98718 -15.61041,2.07838 -3.27422,0.0446 -6.48891,0.0316 -7.14375,-0.0288 z m 222.97761,-6.0929 c 0.1819,-0.0734 0.47956,-0.0734 0.66146,0 0.1819,0.0734 0.0331,0.13345 -0.33073,0.13345 -0.3638,0 -0.51263,-0.0601 -0.33073,-0.13345 z m 6.22274,-0.008 c 0.25744,-0.0671 0.61462,-0.0627 0.79375,0.01 0.17915,0.0725 -0.0315,0.12734 -0.46805,0.12197 -0.43656,-0.005 -0.58312,-0.0647 -0.3257,-0.13179 z M 209.04159,128.0414 c 0.0127,-0.30824 0.0754,-0.37092 0.15985,-0.15986 0.0764,0.19101 0.067,0.41921 -0.0209,0.50713 -0.0879,0.0879 -0.15046,-0.0684 -0.13897,-0.34727 z m -42.3,-0.65614 c -2.19343,-0.38663 -5.05595,-1.61223 -7.48456,-3.2046 C 141.0836,112.26505 121.33092,71.935775 103.88045,11.117694 94.049057,-23.146508 85.117649,-64.33488 81.963956,-89.953144 c -0.530458,-4.309049 -0.587015,-5.984299 -0.594013,-17.594796 -0.0081,-13.45431 0.190267,-16.95331 1.447548,-25.53229 3.870236,-26.40833 14.067008,-45.81067 30.556329,-58.14236 12.54921,-9.38503 27.83832,-14.5522 48.41875,-16.36377 5.16105,-0.45429 18.86874,-0.37656 25.13542,0.14254 14.28467,1.18327 28.08478,3.57787 42.9948,7.46047 4.45902,1.16114 14.14484,3.98515 15.70409,4.57871 l 0.75515,0.28746 -2.34265,2.45155 c -23.95869,25.07261 -38.52058,65.63505 -40.62563,113.163528 -0.26695,6.027283 -0.24724,8.14419 0.14044,15.081251 1.49793,26.803812 1.14283,42.974119 -1.35089,61.5156279 -0.64238,4.7762268 -0.71137,6.0777123 -0.70824,13.3614591 0.003,7.066383 0.0778,8.543309 0.60108,11.877993 2.65355,16.909151 10.15193,31.832393 21.92853,43.64207 l 4.04723,4.058577 -4.44273,4.804966 c -9.93587,10.745973 -21.89976,24.302562 -30.97606,35.099728 -8.56326,10.18689 -11.80382,13.30889 -16.17616,15.58441 -3.37448,1.7562 -6.71193,2.39432 -9.73536,1.86137 z M 469.8377,113.09232 c -4.94752,-0.40875 -10.51332,-1.6859 -12.04251,-2.76331 -0.5326,-0.37525 -0.59531,-0.64187 -0.59531,-2.53153 0,-6.98524 1.50884,-12.356518 4.23757,-15.085245 1.64295,-1.642983 3.61746,-2.608686 8.03677,-3.93073 l 3.62968,-1.085797 1.98414,1.327071 c 6.86184,4.589489 14.9505,6.572356 27.82136,6.820218 11.2847,0.217329 21.72074,-0.803222 34.68056,-3.391377 1.50415,-0.300381 2.79109,-0.489902 2.85985,-0.421137 0.16232,0.162295 -3.01511,2.772675 -5.78575,4.753213 -5.92664,4.236484 -14.20632,8.641474 -20.03827,10.660834 -12.56546,4.35088 -31.53381,6.7428 -44.78809,5.64779 z m 31.49799,-32.437651 c 0.191,-0.07644 0.4192,-0.06704 0.50713,0.0209 0.0879,0.08792 -0.0684,0.150469 -0.34727,0.138986 -0.30824,-0.0127 -0.37092,-0.07541 -0.15986,-0.159861 z m 7.12721,0.0056 c 0.1819,-0.07339 0.47956,-0.07339 0.66146,0 0.1819,0.0734 0.0331,0.133456 -0.33073,0.133456 -0.3638,0 -0.51263,-0.06006 -0.33073,-0.133456 z M 267.49362,71.141257 c -0.3638,-0.05342 -1.55443,-0.223811 -2.64583,-0.378645 -4.82804,-0.685033 -10.59099,-2.549366 -15.41038,-4.985279 -15.61632,-7.89313 -27.31145,-23.267142 -31.25729,-41.089688 -1.18547,-5.354558 -1.35421,-7.144301 -1.35421,-14.363701 0,-5.6516906 0.10459,-7.6345364 0.58614,-11.11250033 2.42627,-17.52365967 2.96567,-35.77617967 1.75281,-59.31296867 -0.38804,-7.53041 -0.39969,-8.840958 -0.082,-9.223799 0.81383,-0.980604 6.83296,-4.68157 11.28463,-6.938553 19.5724,-9.923135 39.24265,-12.804508 50.09067,-7.337473 5.06816,2.554177 8.60818,6.746 10.74428,12.72253 2.01583,5.640054 4.88843,21.455476 6.1814,34.032393 2.25763,21.960439 0.52387,40.3131408 -5.36848,56.827663 -1.66935,4.678707 -2.35587,6.344894 -5.99592,14.552084 -3.82235,8.618247 -4.60909,10.556929 -7.67706,18.91771 -2.18627,5.957967 -4.9248,14.200294 -5.56021,16.734896 l -0.2819,1.12448 -2.17262,-0.03604 c -1.19493,-0.01984 -2.47027,-0.07972 -2.83407,-0.133112 z m 9.78361,-131.687251 c 4.44569,-1.547545 8.10953,-5.082786 8.62801,-8.325149 0.23827,-1.490094 -0.76953,-3.616981 -2.31326,-4.881957 -5.78203,-4.737931 -19.29003,-5.890504 -24.06487,-2.053336 -0.54906,0.441238 -1.11486,0.802251 -1.25733,0.802251 -0.35061,0 -0.6681,3.161353 -0.42877,4.269484 0.91834,4.252121 6.52633,9.367332 11.7115,10.682391 2.179,0.552635 5.29011,0.353806 7.72472,-0.493684 z m 195.8638,120.849283 c -0.61847,-0.768589 -1.12448,-1.522175 -1.12448,-1.674654 0,-0.15248 0.65696,-1.453383 1.45989,-2.890891 4.07924,-7.303109 7.39029,-16.743998 8.82859,-25.173174 1.08617,-6.365505 1.22102,-8.377026 1.21515,-18.123959 -0.006,-10.2352057 -0.10644,-11.66900665 -1.84983,-26.458335 -1.47474,-12.51026 -1.74549,-15.582604 -1.90032,-21.563542 -0.22254,-8.596739 0.22437,-13.743243 2.56175,-29.501043 1.69301,-11.413668 2.08727,-15.46517 2.35709,-24.222828 0.23855,-7.742357 0.14677,-9.102352 -0.88786,-13.157493 -3.96608,-15.54452 -14.97243,-36.94038 -27.86356,-54.16552 -17.01009,-22.72886 -37.29303,-39.88353 -60.97718,-51.57261 l -5.48648,-2.70779 3.14135,-0.58329 c 34.30744,-6.37018 67.20337,-3.84114 93.73315,7.20619 18.6994,7.78667 34.7414,19.70528 47.65016,35.40233 2.64014,3.21041 4.045,5.41367 5.03081,7.88994 2.56741,6.44903 3.66594,14.19674 3.65922,25.80783 -0.0193,33.45454 -11.83812,80.454265 -32.16595,127.9147017 -9.63544,22.4963523 -23.44026,48.8924363 -35.22851,67.3602473 l -1.02851,1.611313 z M 460.18411,40.949467 c -0.88728,-1.855391 -2.2593,-4.742657 -3.04889,-6.416147 -0.7896,-1.673489 -3.58281,-6.91224 -6.20713,-11.641667 -2.62435,-4.729427 -6.14111,-11.15957 -7.81508,-14.2892071 -19.45777,-36.3781409 -27.34066,-62.9407899 -23.47677,-79.1087139 0.29559,-1.236927 1.14155,-3.490106 1.87987,-5.00706 1.13802,-2.338208 1.67055,-3.08592 3.49797,-4.911387 5.88238,-5.876076 14.71131,-8.436576 29.0108,-8.413477 3.95679,0.0064 8.15888,0.177794 10.78566,0.439946 2.36686,0.236212 4.3666,0.429477 4.44389,0.429477 0.47157,0 -0.66096,11.065841 -2.13921,20.902084 -2.37821,15.824582 -2.64033,18.746786 -2.62242,29.23646 0.0151,8.860957 0.0881,9.869872 1.70212,23.547918 1.66034,14.07020635 1.89164,16.8497708 2.04055,24.522349 0.20288,10.452447 -0.41966,16.518444 -2.45883,23.958792 -0.93718,3.419475 -3.44398,10.12407 -3.78531,10.12407 -0.10668,0 -0.91993,-1.518047 -1.80722,-3.373437 z M 444.61833,-66.412738 c 3.91234,-1.019037 8.19399,-4.386728 9.88351,-7.77381 1.51125,-3.029641 1.01169,-5.074518 -1.56024,-6.386616 -5.2101,-2.657991 -17.08598,-1.080821 -21.43292,2.846387 -2.64025,2.385301 -2.45208,4.507498 0.6759,7.623326 3.39937,3.386125 8.16835,4.801707 12.43375,3.690713 z M 51.349916,-95.002275 c 0.0127,-0.308227 0.07539,-0.37092 0.159853,-0.159854 0.07643,0.190995 0.06703,0.419201 -0.02089,0.507119 -0.08792,0.08792 -0.150453,-0.06835 -0.138965,-0.347265 z m -0.213408,-8.841495 c 0,-0.65484 0.0516,-0.92273 0.114662,-0.59531 0.06306,0.32742 0.06306,0.8632 0,1.19062 -0.06306,0.32742 -0.114662,0.0595 -0.114662,-0.59531 z m 0,-6.61458 c 0,-0.65485 0.0516,-0.92274 0.114662,-0.59532 0.06306,0.32743 0.06306,0.86321 0,1.19063 -0.06306,0.32742 -0.114662,0.0595 -0.114662,-0.59531 z M 96.57278,-197.077 c 0,-0.0549 0.208359,-0.2633 0.463021,-0.46302 0.419645,-0.32911 0.429003,-0.31975 0.0999,0.0999 -0.345644,0.44073 -0.562917,0.58089 -0.562917,0.36313 z m -13.758334,-6.35 c 0,-0.0549 0.208359,-0.2633 0.463021,-0.46302 0.419645,-0.32911 0.429003,-0.31975 0.0999,0.0999 -0.345644,0.44073 -0.562917,0.58089 -0.562917,0.36313 z m 81.442064,-19.66002 c 0.19099,-0.0764 0.4192,-0.067 0.50712,0.0209 0.0879,0.0879 -0.0684,0.15046 -0.34727,0.13897 -0.30823,-0.0127 -0.37092,-0.0754 -0.15985,-0.15986 z m 153.45834,-1.32291 c 0.191,-0.0764 0.4192,-0.067 0.50712,0.0209 0.0879,0.0879 -0.0684,0.15045 -0.34726,0.13896 -0.30824,-0.0127 -0.37092,-0.0754 -0.15986,-0.15985 z m 10.84791,0 c 0.19101,-0.0764 0.41921,-0.067 0.50713,0.0209 0.0879,0.0879 -0.0684,0.15045 -0.34726,0.13896 -0.30824,-0.0127 -0.37092,-0.0754 -0.15987,-0.15985 z m 96.2949,-5.82723 c 0.32912,-0.0633 0.80537,-0.0609 1.05833,0.005 0.25295,0.0662 -0.0164,0.11801 -0.5984,0.11507 -0.58209,-0.003 -0.78907,-0.0571 -0.45993,-0.12041 z m 7.67292,0 c 0.32911,-0.0633 0.80536,-0.0609 1.05833,0.005 0.25294,0.0662 -0.0164,0.11801 -0.59841,0.11507 -0.58208,-0.003 -0.78906,-0.0571 -0.45992,-0.12041 z m -250.28241,-6.87277 c 0.191,-0.0764 0.41921,-0.067 0.50712,0.0209 0.0879,0.0879 -0.0684,0.15045 -0.34726,0.13896 -0.30823,-0.0127 -0.37092,-0.0754 -0.15986,-0.15985 z m 148.96043,-1.5875 c 0.191,-0.0764 0.4192,-0.067 0.50712,0.0209 0.0879,0.0879 -0.0684,0.15045 -0.34726,0.13896 -0.30824,-0.0127 -0.37092,-0.0754 -0.15986,-0.15985 z m 91.54584,-5.82084 c 0.191,-0.0764 0.4192,-0.067 0.50712,0.0209 0.0879,0.0879 -0.0684,0.15045 -0.34726,0.13897 -0.30824,-0.0127 -0.37092,-0.0754 -0.15986,-0.15986 z"
           id="path976" /><path
           style="fill:#606060;fill-opacity:1;stroke-width:0.264583"
           d="m 432.06446,270.93854 c 0.34176,-0.3638 0.68093,-0.66146 0.75369,-0.66146 0.0728,0 -0.14734,0.29766 -0.48911,0.66146 -0.34176,0.3638 -0.68093,0.66146 -0.75369,0.66146 -0.0728,0 0.14735,-0.29766 0.48911,-0.66146 z m 1.05833,-1.02595 c 0,-0.0549 0.20836,-0.26328 0.46303,-0.46302 0.41965,-0.32909 0.42899,-0.31975 0.0999,0.0999 -0.34565,0.44071 -0.56293,0.58089 -0.56293,0.36311 z m -8.47772,-8.96207 c 1.09643,-1.16819 1.33397,-1.37824 1.33397,-1.17957 0,0.0425 -0.56554,0.60802 -1.25677,1.25677 l -1.25677,1.17957 z M 305.34993,183.07483 c 0.0127,-0.30824 0.0754,-0.37092 0.15985,-0.15986 0.0764,0.191 0.067,0.4192 -0.0209,0.50713 -0.0879,0.0879 -0.15045,-0.0684 -0.13896,-0.34727 z M 293.44368,177.254 c 0.0127,-0.30824 0.0754,-0.37092 0.15985,-0.15987 0.0764,0.19101 0.067,0.41921 -0.0209,0.50713 -0.0879,0.0879 -0.15045,-0.0684 -0.13896,-0.34726 z m 11.64166,-2.64584 c 0.0127,-0.30824 0.0754,-0.37092 0.15986,-0.15986 0.0764,0.191 0.067,0.41921 -0.0209,0.50713 -0.0879,0.0879 -0.15045,-0.0684 -0.13896,-0.34727 z m -11.90625,-5.82083 c 0.0127,-0.30824 0.0754,-0.37092 0.15985,-0.15986 0.0764,0.191 0.067,0.4192 -0.0209,0.50712 -0.0879,0.0879 -0.15045,-0.0684 -0.13897,-0.34726 z m 11.67236,-6.85713 c 0.005,-0.43656 0.0647,-0.58311 0.13178,-0.3257 0.0671,0.25744 0.0627,0.61463 -0.01,0.79375 -0.0725,0.17915 -0.12736,-0.0315 -0.12197,-0.46805 z m -11.93694,-1.87412 c 0.0127,-0.30824 0.0754,-0.37092 0.15985,-0.15986 0.0764,0.191 0.067,0.4192 -0.0209,0.50712 -0.0879,0.0879 -0.15046,-0.0684 -0.13897,-0.34726 z m 173.0375,-7.14375 c 0.0127,-0.30824 0.0754,-0.37092 0.15986,-0.15986 0.0764,0.191 0.067,0.4192 -0.0209,0.50712 -0.0879,0.0879 -0.15046,-0.0684 -0.13898,-0.34726 z m 12.61607,-8.49948 c 0.32912,-0.0633 0.80537,-0.0609 1.05833,0.005 0.25295,0.0662 -0.0164,0.11801 -0.5984,0.11507 -0.58209,-0.003 -0.78907,-0.0571 -0.45993,-0.12041 z M 212.9557,136.72864 c -0.32911,-0.41966 -0.31975,-0.429 0.0999,-0.0999 0.44073,0.34565 0.58089,0.56293 0.36312,0.56293 -0.0549,0 -0.2633,-0.20836 -0.46302,-0.46302 z m 268.00707,-8.18439 c 0.191,-0.0764 0.41921,-0.067 0.50713,0.0209 0.0879,0.0879 -0.0684,0.15047 -0.34727,0.13898 -0.30824,-0.0127 -0.37092,-0.0754 -0.15986,-0.15986 z M 51.15836,-107.15106 c -8.07e-4,-1.30969 0.04393,-1.87883 0.09942,-1.26475 0.05549,0.61407 0.05615,1.68563 0.0015,2.38125 -0.05468,0.69561 -0.100084,0.19319 -0.10089,-1.1165 z m 522.21448,-21.71788 c 0.0127,-0.30823 0.0754,-0.37092 0.15986,-0.15986 0.0764,0.191 0.067,0.4192 -0.0209,0.50712 -0.0879,0.0879 -0.15047,-0.0684 -0.13898,-0.34726 z m -37.07159,-60.10452 -1.44616,-1.52136 1.52136,1.44617 c 1.41337,1.34354 1.64256,1.59654 1.44616,1.59654 -0.0413,0 -0.72594,-0.68461 -1.52136,-1.52135 z M 84.137363,-204.78232 c 0.341775,-0.3638 0.680939,-0.66145 0.7537,-0.66145 0.07276,0 -0.147341,0.29765 -0.489117,0.66145 -0.341775,0.36381 -0.680939,0.66146 -0.7537,0.66146 -0.07276,0 0.147341,-0.29765 0.489117,-0.66146 z m 1.322917,-1.29052 c 0,-0.0549 0.208359,-0.2633 0.46302,-0.46302 0.419645,-0.32911 0.429004,-0.31975 0.0999,0.0999 -0.345643,0.44073 -0.562916,0.58089 -0.562916,0.36312 z m 338.35249,-24.15793 c 0.191,-0.0764 0.4192,-0.067 0.50713,0.0209 0.0879,0.0879 -0.0684,0.15046 -0.34727,0.13897 -0.30824,-0.0127 -0.37092,-0.0754 -0.15986,-0.15986 z m 10.31875,0 c 0.191,-0.0764 0.4192,-0.067 0.50713,0.0209 0.0879,0.0879 -0.0684,0.15046 -0.34727,0.13897 -0.30824,-0.0127 -0.37092,-0.0754 -0.15986,-0.15986 z m -103.71667,-8.46666 c 0.191,-0.0764 0.4192,-0.067 0.50712,0.0209 0.0879,0.0879 -0.0684,0.15045 -0.34726,0.13896 -0.30824,-0.0127 -0.37092,-0.0754 -0.15986,-0.15985 z m 105.03959,-5.82084 c 0.191,-0.0764 0.4192,-0.067 0.50712,0.0209 0.0879,0.0879 -0.0684,0.15045 -0.34726,0.13897 -0.30824,-0.0127 -0.37092,-0.0754 -0.15986,-0.15986 z"
           id="path974" /><path
           style="fill:#494949;fill-opacity:1;stroke-width:0.264583"
           d="m 321.69945,280.92656 c -0.32909,-0.41965 -0.31975,-0.42899 0.0999,-0.0999 0.44072,0.34565 0.5809,0.56292 0.36312,0.56292 -0.0549,0 -0.26329,-0.20836 -0.46302,-0.46302 z M 293.44368,176.46025 c 0.0127,-0.30824 0.0754,-0.37092 0.15985,-0.15987 0.0764,0.19101 0.067,0.41921 -0.0209,0.50713 -0.0879,0.0879 -0.15045,-0.0684 -0.13896,-0.34726 z m 11.66255,-0.90401 c 0,-0.3638 0.0601,-0.51263 0.13345,-0.33073 0.0734,0.18191 0.0734,0.47956 0,0.66146 -0.0734,0.1819 -0.13345,0.0331 -0.13345,-0.33073 z m -11.92714,-7.56266 c 0.0127,-0.30824 0.0754,-0.37092 0.15985,-0.15986 0.0764,0.191 0.067,0.4192 -0.0209,0.50712 -0.0879,0.0879 -0.15045,-0.0684 -0.13897,-0.34726 z m -39.22883,-2.14307 c 0.191,-0.0764 0.4192,-0.0671 0.50712,0.0209 0.0879,0.0879 -0.0684,0.15047 -0.34727,0.13898 -0.30822,-0.0127 -0.37092,-0.0754 -0.15985,-0.15986 z m 50.90119,-2.59739 c 0.005,-0.43656 0.0647,-0.58312 0.13178,-0.3257 0.0671,0.25744 0.0627,0.61462 -0.01,0.79375 -0.0725,0.17915 -0.12736,-0.0315 -0.12197,-0.46805 z m 161.10056,-11.13454 c 0.0127,-0.30824 0.0754,-0.37092 0.15986,-0.15986 0.0764,0.191 0.067,0.4192 -0.0209,0.50712 -0.0879,0.0879 -0.15046,-0.0684 -0.13898,-0.34726 z m 10.09943,-7.70811 c 0.40019,-0.0606 1.05503,-0.0606 1.45521,0 0.40018,0.0606 0.0728,0.11023 -0.7276,0.11023 -0.80037,0 -1.12779,-0.0496 -0.72761,-0.11023 z m -307.44221,-1.58784 c 0.40219,-0.0608 0.9975,-0.0592 1.32292,0.004 0.32542,0.0628 -0.004,0.11256 -0.73124,0.11057 -0.72761,-0.003 -0.99386,-0.0534 -0.59168,-0.11419 z m -26.56186,-12.97316 c -0.32911,-0.41965 -0.31975,-0.42899 0.0999,-0.0999 0.44073,0.34566 0.58089,0.56293 0.36313,0.56293 -0.0549,0 -0.2633,-0.20836 -0.46302,-0.46302 z m -1.05834,-1.05833 c -0.32911,-0.41966 -0.31975,-0.429 0.0999,-0.0999 0.25466,0.19973 0.46302,0.40809 0.46302,0.46302 0,0.21778 -0.21727,0.0776 -0.56292,-0.36311 z m 331.24249,-0.24689 c 0.191,-0.0764 0.41921,-0.067 0.50713,0.0209 0.0879,0.0879 -0.0684,0.15047 -0.34727,0.13898 -0.30824,-0.0127 -0.37092,-0.0754 -0.15986,-0.15986 z m 35.98334,-62.177082 c 0.191,-0.07644 0.4192,-0.06705 0.50712,0.0209 0.0879,0.08792 -0.0684,0.150468 -0.34726,0.138985 -0.30824,-0.0127 -0.37092,-0.07541 -0.15986,-0.159861 z m 65.15798,-196.029858 c 0.0127,-0.30823 0.0754,-0.37092 0.15986,-0.15986 0.0764,0.191 0.067,0.4192 -0.0209,0.50712 -0.0879,0.0879 -0.15047,-0.0684 -0.13898,-0.34726 z m -35.24422,-57.45869 c -0.32909,-0.41964 -0.31975,-0.429 0.0999,-0.0999 0.44072,0.34564 0.58089,0.56291 0.36311,0.56291 -0.0549,0 -0.26328,-0.20836 -0.46302,-0.46302 z m -3.70416,-3.70416 c -0.32909,-0.41965 -0.31975,-0.42901 0.0999,-0.0999 0.44072,0.34564 0.58089,0.56292 0.36312,0.56292 -0.0549,0 -0.26329,-0.20836 -0.46302,-0.46302 z m -361.97767,-32.53707 c 0.47555,-0.0589 1.18993,-0.0577 1.5875,0.003 0.39758,0.0604 0.008,0.10855 -0.86463,0.10706 -0.87313,-10e-4 -1.19842,-0.0509 -0.72287,-0.10976 z m 250.57223,-6.86816 c 0.191,-0.0764 0.4192,-0.067 0.50713,0.0209 0.0879,0.0879 -0.0684,0.15046 -0.34727,0.13897 -0.30824,-0.0127 -0.37092,-0.0754 -0.15986,-0.15986 z m -93.39792,-8.46666 c 0.191,-0.0764 0.4192,-0.067 0.50712,0.0209 0.0879,0.0879 -0.0684,0.15045 -0.34726,0.13896 -0.30824,-0.0127 -0.37092,-0.0754 -0.15986,-0.15985 z m 94.45625,-5.82084 c 0.191,-0.0764 0.41921,-0.067 0.50713,0.0209 0.0879,0.0879 -0.0684,0.15045 -0.34727,0.13897 -0.30824,-0.0127 -0.37092,-0.0754 -0.15986,-0.15986 z m 10.30222,0.006 c 0.1819,-0.0734 0.47955,-0.0734 0.66145,0 0.18191,0.0734 0.0331,0.13346 -0.33072,0.13346 -0.36381,0 -0.51264,-0.0601 -0.33073,-0.13346 z"
           id="path972" /><path
           style="fill:#ffffff;fill-opacity:1;stroke-width:0.264583"
           d="m 357.28961,296.47242 c -18.58513,-1.56027 -33.27834,-10.07771 -43.36528,-25.13827 -2.00078,-2.98731 -4.95076,-8.58946 -6.61588,-12.56385 -1.4293,-3.41151 -6.12886,-17.09648 -7.24136,-21.08658 -3.79231,-13.60159 -5.97655,-36.50639 -6.78242,-71.12331 -0.0864,-3.71078 -0.20926,-7.00392 -0.27305,-7.31811 -0.11502,-0.56645 -0.13319,-0.56396 -2.18031,0.2994 -10.95345,4.61957 -25.58392,6.97564 -38.72554,6.23623 -11.53358,-0.64892 -22.91507,-2.86218 -30.87267,-6.00358 -7.57416,-2.99 -12.84595,-6.27301 -17.65757,-10.99627 l -2.40247,-2.35836 -2.62462,1.9618 c -8.78475,6.56625 -17.62968,9.82081 -27.62774,10.16582 -11.48771,0.39646 -22.7096,-3.67847 -33.07067,-12.00872 C 115.42097,128.50581 95.180286,88.240009 76.227569,23.949987 65.36028,-12.913231 55.03794,-60.777266 51.977093,-88.497936 c -0.578385,-5.23816 -0.824228,-23.976174 -0.407883,-31.088544 2.601881,-44.4476 17.901037,-76.44237 46.206514,-96.63058 14.313336,-10.20866 33.019836,-17.09747 53.301226,-19.62858 8.48061,-1.05838 11.29902,-1.21001 22.35729,-1.20277 8.1764,0.005 12.1511,0.12274 16.13959,0.47671 21.32633,1.89262 40.80678,5.8304 62.66536,12.66719 l 6.04453,1.89057 1.4961,-0.85214 c 19.53599,-11.12724 42.43891,-16.44908 68.0388,-15.80985 11.6912,0.29193 22.3106,1.17734 32.27917,2.69134 2.4011,0.36468 4.49945,0.70855 4.66299,0.76416 0.16357,0.0556 1.29466,-0.19109 2.51354,-0.54823 23.36695,-6.84658 51.59137,-9.92071 76.03493,-8.28152 30.10292,2.01871 57.25232,10.75614 80.30105,25.84312 12.18861,7.97828 22.97851,17.57134 32.89956,29.25032 4.54287,5.34781 7.01853,8.87374 9.01735,12.84287 8.37091,16.62246 10.18138,41.15133 5.42618,73.51629 -7.47967,50.908188 -30.54181,113.44627 -61.03814,165.518259 -1.09011,1.861318 -1.93725,3.422386 -1.88253,3.469058 0.20875,0.178065 7.431,-0.394282 11.60883,-0.919982 2.40109,-0.302155 6.68734,-0.968614 9.525,-1.481059 10.78513,-1.94765 12.39713,-2.189083 15.74271,-2.357755 9.05005,-0.456221 16.29156,1.693122 22.08268,6.554312 3.47967,2.920947 6.35442,7.241858 7.97621,11.988695 0.5937,1.737677 0.63278,2.219827 0.63278,7.805208 v 5.953126 l -0.898,2.513541 c -3.50798,9.818847 -11.11996,18.415927 -24.10513,27.224597 -15.88587,10.7764 -31.23721,16.43557 -52.3875,19.31228 -7.63373,1.0383 -10.78206,1.22042 -21.09767,1.22042 -6.56616,0 -10.15341,0.0938 -10.2199,0.26717 -0.28749,0.74962 -0.97427,10.14701 -1.22767,16.79845 -1.44383,37.89792 -7.4096,67.57298 -17.60524,87.57246 -4.65669,9.1344 -9.555,15.8387 -16.45187,22.5176 -12.00261,11.62334 -26.84164,18.45168 -50.60807,23.28792 -7.93822,1.61533 -17.47195,2.34944 -23.71027,1.8257 z m 17.49256,-14.42646 c 11.93276,-1.5662 26.1897,-5.84451 35.26986,-10.58402 18.88178,-9.85557 28.84932,-25.26303 33.63055,-51.98486 2.37263,-13.26039 7.39672,-51.09618 11.15277,-83.99021 0.58066,-5.08498 1.08231,-9.26833 1.1148,-9.29632 0.0325,-0.028 1.15609,0.22762 2.49687,0.56803 13.87253,3.52211 37.02116,2.14368 56.54278,-3.36695 17.74847,-5.0101 38.55482,-19.15798 43.96047,-29.892154 4.01892,-7.980521 0.57386,-15.531201 -7.91107,-17.338967 -2.25985,-0.481488 -8.13874,-0.337687 -11.28932,0.27612 -16.35231,3.185848 -24.50975,4.181448 -34.39583,4.197958 -6.55056,0.01085 -10.52775,-0.390816 -14.9338,-1.508495 -2.55389,-0.647859 -7.02662,-2.581222 -7.02662,-3.037338 0,-0.128481 1.17097,-2.059834 2.60218,-4.291912 30.92254,-48.226427 55.43897,-106.825711 66.28834,-158.442694 3.83889,-18.263978 5.41128,-31.018638 5.64293,-45.772918 0.22076,-14.06195 -0.66382,-22.02056 -3.40905,-30.67144 -2.00327,-6.31281 -4.22577,-10.19114 -9.34771,-16.31194 -19.46346,-23.25926 -44.80756,-38.88267 -74.87357,-46.15595 -28.29885,-6.84579 -60.77646,-6.23385 -92.86875,1.74982 -4.87839,1.2136 -8.61671,2.29719 -11.92689,3.4571 l -1.87274,0.65622 -4.47726,-0.96364 c -19.22132,-4.13696 -40.31951,-4.96685 -56.86478,-2.23673 -14.52739,2.39715 -27.14146,7.05183 -38.83794,14.33147 l -3.11918,1.94132 -7.59644,-2.52643 c -30.42848,-10.11991 -59.62629,-14.89346 -85.64853,-14.00266 -18.61045,0.63707 -34.38041,4.17634 -48.15417,10.80728 -9.47653,4.56218 -16.4376,9.45343 -23.561459,16.55563 -16.623356,16.57281 -25.932524,39.21701 -28.879835,70.24912 -0.671144,7.06644 -0.670066,29.252497 0.0017,35.145896 3.242284,28.444186 13.82911,76.595719 25.033966,113.860747 14.528178,48.317708 29.951978,82.290927 46.043318,101.417227 8.39894,9.98308 17.41514,15.92411 26.73835,17.61871 2.54069,0.46181 7.42131,0.40212 10.1478,-0.12409 9.06691,-1.74987 16.76141,-7.05397 25.8729,-17.83511 14.16254,-16.75781 22.46153,-26.156259 39.1236,-44.306729 l 1.45784,-1.588082 2.17219,1.092147 c 7.54474,3.793437 16.65832,6.261047 25.18815,6.820032 1.96039,0.128482 2.66461,0.268103 2.66461,0.528294 0,0.3302 -1.07182,1.695847 -7.61671,9.704811 -1.40525,1.71958 -3.2727,3.715337 -4.14988,4.434947 -3.8502,3.15867 -9.85889,5.18811 -25.32888,8.55488 -8.5443,1.85952 -13.76463,3.7084 -17.59442,6.23144 -4.13837,2.72632 -6.32025,5.76083 -7.00239,9.73876 -0.57988,3.38156 0.63663,7.16126 3.37231,10.47784 3.67527,4.45572 12.16287,8.98306 20.63297,11.00574 17.95509,4.28776 34.5744,3.8258 48.93179,-1.36017 6.64316,-2.39953 14.93643,-7.13981 20.24062,-11.56914 l 2.24896,-1.87802 0.1701,19.77692 c 0.3969,46.14609 2.65173,75.71468 6.69351,87.77484 1.93269,5.76688 5.79049,13.76841 9.03219,18.73388 8.86269,13.57537 21.39871,21.54523 36.88858,23.45221 1.23693,0.15227 2.78474,0.32504 3.43958,0.38391 2.33982,0.2104 10.77167,-0.097 13.89063,-0.50633 z"
           id="path970" /></g></g></g></svg>
