<?xml version="1.0" encoding="UTF-8" standalone="no"?>
<!-- Created with Inkscape (http://www.inkscape.org/) -->

<svg
   width="52.916664mm"
   height="52.916668mm"
   viewBox="0 0 52.916664 52.916668"
   version="1.1"
   id="svg5"
   xml:space="preserve"
   inkscape:version="1.2.1 (9c6d41e410, 2022-07-14)"
   sodipodi:docname="stack icons.svg"
   xmlns:inkscape="http://www.inkscape.org/namespaces/inkscape"
   xmlns:sodipodi="http://sodipodi.sourceforge.net/DTD/sodipodi-0.dtd"
   xmlns="http://www.w3.org/2000/svg"
   xmlns:svg="http://www.w3.org/2000/svg"><sodipodi:namedview
     id="namedview7"
     pagecolor="#ffffff"
     bordercolor="#000000"
     borderopacity="0.25"
     inkscape:showpageshadow="2"
     inkscape:pageopacity="0.0"
     inkscape:pagecheckerboard="0"
     inkscape:deskcolor="#d1d1d1"
     inkscape:document-units="mm"
     showgrid="false"
     inkscape:zoom="0.26362494"
     inkscape:cx="-299.66815"
     inkscape:cy="398.29312"
     inkscape:window-width="1920"
     inkscape:window-height="1017"
     inkscape:window-x="-8"
     inkscape:window-y="-8"
     inkscape:window-maximized="1"
     inkscape:current-layer="layer1" /><defs
     id="defs2" /><g
     inkscape:label="Capa 1"
     inkscape:groupmode="layer"
     id="layer1"
     transform="translate(157.90322,15.612903)"><g
       id="g1271"
       inkscape:export-filename="rails.svg"
       inkscape:export-xdpi="96"
       inkscape:export-ydpi="96"><g
         id="g485"
         transform="translate(-19.16129,-27.322581)"><rect
           style="fill:none;stroke-width:1.49128;stroke-linecap:round;stroke-linejoin:round;paint-order:markers fill stroke"
           id="rect481"
           width="52.916668"
           height="52.916668"
           x="-138.74193"
           y="11.709678" /><path
           id="path356"
           style="fill:#ffffff;fill-opacity:1;stroke-width:1.76286;stroke-linecap:round;stroke-linejoin:round;paint-order:markers fill stroke"
           d="m -106.59545,12.130264 -3.67491,2.58083 2.73659,3.439872 3.36245,-2.267446 z m 11.728922,3.205764 C -127.8633,25.657284 -123.09338,64.12742 -123.09338,64.12742 l 20.72034,0.07834 c -9.85211,-35.655252 9.226448,-45.428945 9.226448,-45.428945 z m -23.691962,6.020684 -3.44079,4.06664 4.06662,2.736596 2.89238,-3.362447 z m 21.972026,5.082383 -2.424128,3.362447 2.50247,2.345787 1.563253,-2.424128 z m -3.909956,8.132363 -1.01666,3.987364 3.674914,1.407469 0.391726,-3.284088 z m -27.05439,0.938301 -1.48492,4.613232 4.769,1.876619 1.48581,-4.456531 z m 25.72526,7.740637 -0.0783,4.222406 4.379108,0.859977 -0.46915,-4.065723 z m -29.47852,8.719026 -0.11653,5.004041 5.27733,0.273296 0.0783,-5.199895 z m 30.10437,1.91489 1.250789,4.926599 h 5.004042 l -1.485828,-4.691574 z" /></g></g></g></svg>
