<?xml version="1.0" encoding="UTF-8" standalone="no"?>
<!-- Created with Inkscape (http://www.inkscape.org/) -->

<svg
   width="52.916664mm"
   height="52.916668mm"
   viewBox="0 0 52.916664 52.916668"
   version="1.1"
   id="svg5"
   xml:space="preserve"
   inkscape:version="1.2.1 (9c6d41e410, 2022-07-14)"
   sodipodi:docname="stack icons.svg"
   xmlns:inkscape="http://www.inkscape.org/namespaces/inkscape"
   xmlns:sodipodi="http://sodipodi.sourceforge.net/DTD/sodipodi-0.dtd"
   xmlns="http://www.w3.org/2000/svg"
   xmlns:svg="http://www.w3.org/2000/svg"><sodipodi:namedview
     id="namedview7"
     pagecolor="#ffffff"
     bordercolor="#000000"
     borderopacity="0.25"
     inkscape:showpageshadow="2"
     inkscape:pageopacity="0.0"
     inkscape:pagecheckerboard="0"
     inkscape:deskcolor="#d1d1d1"
     inkscape:document-units="mm"
     showgrid="false"
     inkscape:zoom="0.26362494"
     inkscape:cx="-299.66815"
     inkscape:cy="398.29312"
     inkscape:window-width="1920"
     inkscape:window-height="1017"
     inkscape:window-x="-8"
     inkscape:window-y="-8"
     inkscape:window-maximized="1"
     inkscape:current-layer="layer1" /><defs
     id="defs2" /><g
     inkscape:label="Capa 1"
     inkscape:groupmode="layer"
     id="layer1"
     transform="translate(157.39382,-54.444888)"><g
       id="g1280"
       inkscape:export-filename="vue.svg"
       inkscape:export-xdpi="96"
       inkscape:export-ydpi="96"><rect
         style="fill:none;stroke-width:1.49128;stroke-linecap:round;stroke-linejoin:round;paint-order:markers fill stroke"
         id="rect481-0"
         width="52.916668"
         height="52.916668"
         x="-157.39381"
         y="54.444889" /><g
         id="g573"
         transform="matrix(0.16917774,0,0,0.16917774,-144.26115,76.742684)"><path
           style="fill:#a3a3a3;fill-opacity:1;stroke-width:0.264583"
           d="m -62.050284,-110.82635 c 8.622109,-0.0387 22.731015,-0.0387 31.353124,0 8.622109,0.0387 1.567656,0.0704 -15.676562,0.0704 -17.244218,0 -24.298671,-0.0317 -15.676562,-0.0704 z m 250.295824,0 c 8.62211,-0.0387 22.73102,-0.0387 31.35313,0 8.62211,0.0387 1.56765,0.0704 -15.67656,0.0704 -17.24422,0 -24.29868,-0.0317 -15.67657,-0.0704 z"
           id="path583" /><path
           style="fill:#ffffff;fill-opacity:1;stroke-width:0.264583"
           d="M 1.3687414,26.243044 C -41.115187,-47.345711 -76.268886,-108.24667 -76.750593,-109.09241 l -0.875829,-1.53772 31.253613,0.0672 31.253612,0.0672 46.813532,81.094794 c 25.747445,44.602133 46.931293,81.094788 47.075222,81.094788 0.143928,0 1.257165,-1.726406 2.473859,-3.836458 2.834045,-4.914947 35.602244,-61.681863 53.760384,-93.13333 7.68736,-13.315156 19.30159,-33.436717 25.80942,-44.714581 l 11.8324,-20.505213 31.25767,-0.0672 31.25769,-0.0672 -0.33975,0.62055 c -2.0796,3.79835 -155.936487,270.05036 -156.051808,270.05036 -0.08645,0 -34.916753,-60.20898 -77.4006806,-133.797736 z"
           id="path581" /><path
           style="fill:#767676;fill-opacity:1;stroke-width:0.264583"
           d="m -15.152924,-110.6941 c 1.9e-5,-0.10914 13.0076125,-0.1701 28.905763,-0.13545 15.898151,0.0346 24.262291,0.094 18.586979,0.132 -27.1435533,0.18157 -47.492773,0.18305 -47.492742,0.003 z m 158.882324,0.0661 -28.83958,-0.13582 28.90572,-0.0644 c 19.13702,-0.0426 28.90573,0.025 28.90573,0.2002 0,0.14552 -0.0298,0.23561 -0.0661,0.2002 -0.0364,-0.0354 -13.04396,-0.1255 -28.90573,-0.2002 z"
           id="path579" /><path
           style="fill:#606060;fill-opacity:1;stroke-width:0.264583"
           d="m 78.509609,51.726308 c 0,-0.05494 0.208359,-0.2633 0.46302,-0.463021 0.419646,-0.329107 0.429004,-0.319749 0.0999,0.0999 -0.345644,0.44073 -0.562917,0.580888 -0.562917,0.363125 z m 4.233333,-7.043854 c 0.15576,-0.291041 0.342733,-0.529166 0.415494,-0.529166 0.07276,0 0.0048,0.238125 -0.150911,0.529166 -0.15576,0.291042 -0.342733,0.529167 -0.415493,0.529167 -0.07276,0 -0.0048,-0.238125 0.15091,-0.529167 z m -10.054167,-3.175 c -0.15576,-0.291041 -0.22367,-0.529166 -0.15091,-0.529166 0.07276,0 0.259734,0.238125 0.415494,0.529166 0.15576,0.291042 0.223671,0.529167 0.15091,0.529167 -0.07276,0 -0.259733,-0.238125 -0.415494,-0.529167 z m -3.968749,-6.879166 c -0.155761,-0.291042 -0.223671,-0.529167 -0.150911,-0.529167 0.07276,0 0.259734,0.238125 0.415494,0.529167 0.15576,0.291042 0.223671,0.529167 0.15091,0.529167 -0.07276,0 -0.259733,-0.238125 -0.415493,-0.529167 z m -3.96875,-6.879166 c -0.155761,-0.291042 -0.223671,-0.529167 -0.150911,-0.529167 0.07276,0 0.259734,0.238125 0.415494,0.529167 0.15576,0.291041 0.223671,0.529166 0.15091,0.529166 -0.07276,0 -0.259733,-0.238125 -0.415493,-0.529166 z m -3.96875,-6.879167 c -0.15576,-0.291042 -0.223671,-0.529167 -0.150911,-0.529167 0.07276,0 0.259734,0.238125 0.415494,0.529167 0.15576,0.291042 0.223671,0.529167 0.15091,0.529167 -0.07276,0 -0.259733,-0.238125 -0.415493,-0.529167 z m -2.910417,-5.027083 c -0.15576,-0.291042 -0.223671,-0.529167 -0.15091,-0.529167 0.07276,0 0.259733,0.238125 0.415493,0.529167 0.155761,0.291042 0.223671,0.529167 0.150911,0.529167 -0.07276,0 -0.259734,-0.238125 -0.415494,-0.529167 z m 43.656251,-3.704167 c 0.15576,-0.291041 0.34273,-0.529166 0.41549,-0.529166 0.0728,0 0.005,0.238125 -0.15091,0.529166 -0.15576,0.291042 -0.34273,0.529167 -0.41549,0.529167 -0.0728,0 -0.005,-0.238125 0.15091,-0.529167 z M 53.903359,8.9637056 c -0.15576,-0.2910417 -0.223671,-0.5291667 -0.15091,-0.5291667 0.07276,0 0.259733,0.238125 0.415494,0.5291667 0.15576,0.2910416 0.22367,0.5291666 0.15091,0.5291666 -0.07276,0 -0.259734,-0.238125 -0.415494,-0.5291666 z m -3.96875,-6.8791664 c -0.15576,-0.2910417 -0.223671,-0.5291667 -0.15091,-0.5291667 0.07276,0 0.259733,0.238125 0.415494,0.5291667 0.15576,0.2910416 0.22367,0.5291666 0.15091,0.5291666 -0.07276,0 -0.259734,-0.238125 -0.415494,-0.5291666 z m -3.96875,-6.8791664 c -0.15576,-0.2910417 -0.22367,-0.5291667 -0.15091,-0.5291667 0.07276,0 0.259733,0.238125 0.415494,0.5291667 0.15576,0.2910416 0.223671,0.5291666 0.15091,0.5291666 -0.07276,0 -0.259733,-0.238125 -0.415494,-0.5291666 z m 70.379161,-8.7312498 c 0.15576,-0.291042 0.34274,-0.529167 0.4155,-0.529167 0.0728,0 0.005,0.238125 -0.15091,0.529167 -0.15576,0.291042 -0.34274,0.529167 -0.4155,0.529167 -0.0728,0 -0.005,-0.238125 0.15091,-0.529167 z m -77.258327,-3.175 c -0.15576,-0.291041 -0.223671,-0.529166 -0.150911,-0.529166 0.07276,0 0.259734,0.238125 0.415494,0.529166 0.15576,0.291042 0.223671,0.529167 0.150911,0.529167 -0.07276,0 -0.259734,-0.238125 -0.415494,-0.529167 z m -3.96875,-6.879166 c -0.15576,-0.291042 -0.223671,-0.529167 -0.15091,-0.529167 0.07276,0 0.259733,0.238125 0.415493,0.529167 0.15576,0.291041 0.223671,0.529166 0.150911,0.529166 -0.07276,0 -0.259734,-0.238125 -0.415494,-0.529166 z m -3.96875,-6.879167 c -0.15576,-0.291041 -0.223671,-0.529166 -0.15091,-0.529166 0.07276,0 0.259733,0.238125 0.415493,0.529166 0.155761,0.291042 0.223671,0.529167 0.150911,0.529167 -0.07276,0 -0.259734,-0.238125 -0.415494,-0.529167 z m -3.96875,-6.879166 c -0.15576,-0.291042 -0.223671,-0.529167 -0.15091,-0.529167 0.07276,0 0.259733,0.238125 0.415493,0.529167 0.155761,0.291042 0.223671,0.529167 0.150911,0.529167 -0.07276,0 -0.259734,-0.238125 -0.415494,-0.529167 z m 107.949997,-8.73125 c 0.15576,-0.291041 0.34273,-0.529166 0.41549,-0.529166 0.0728,0 0.005,0.238125 -0.15091,0.529166 -0.15576,0.291042 -0.34273,0.529167 -0.41549,0.529167 -0.0728,0 -0.005,-0.238125 0.15091,-0.529167 z m -114.829163,-3.175 c -0.155761,-0.291041 -0.223671,-0.529166 -0.150911,-0.529166 0.07276,0 0.259734,0.238125 0.415494,0.529166 0.15576,0.291042 0.223671,0.529167 0.15091,0.529167 -0.07276,0 -0.259733,-0.238125 -0.415493,-0.529167 z m -3.96875,-6.879166 c -0.155761,-0.291042 -0.223671,-0.529167 -0.150911,-0.529167 0.07276,0 0.259734,0.238125 0.415494,0.529167 0.15576,0.291042 0.223671,0.529167 0.15091,0.529167 -0.07276,0 -0.259733,-0.238125 -0.415493,-0.529167 z m -3.96875,-6.879166 c -0.15576,-0.291042 -0.223671,-0.529167 -0.150911,-0.529167 0.07276,0 0.259734,0.238125 0.415494,0.529167 0.15576,0.291041 0.223671,0.529166 0.15091,0.529166 -0.07276,0 -0.259733,-0.238125 -0.415493,-0.529166 z m -3.9687502,-6.879167 c -0.1557602,-0.291041 -0.2236708,-0.529166 -0.1509104,-0.529166 0.072761,0 0.2597336,0.238125 0.4154938,0.529166 0.1557602,0.291042 0.2236708,0.529167 0.1509104,0.529167 -0.072761,0 -0.2597336,-0.238125 -0.4154938,-0.529167 z M 5.4846102,-74.909208 C 5.32885,-75.20025 5.2609394,-75.438375 5.3336998,-75.438375 c 0.07276,0 0.2597335,0.238125 0.4154938,0.529167 0.1557602,0.291042 0.2236708,0.529167 0.1509103,0.529167 -0.07276,0 -0.2597335,-0.238125 -0.4154937,-0.529167 z M 153.91586,-78.613375 c 0.15576,-0.291041 0.34273,-0.529166 0.41549,-0.529166 0.0728,0 0.005,0.238125 -0.15091,0.529166 -0.15576,0.291042 -0.34273,0.529167 -0.41549,0.529167 -0.0728,0 -0.005,-0.238125 0.15091,-0.529167 z M 1.5158603,-81.788374 c -0.1557602,-0.291042 -0.2236708,-0.529167 -0.1509104,-0.529167 0.07276,0 0.2597335,0.238125 0.4154937,0.529167 0.1557602,0.291041 0.2236708,0.529166 0.1509104,0.529166 -0.07276,0 -0.2597335,-0.238125 -0.4154937,-0.529166 z m -3.9687499,-6.879167 c -0.1557602,-0.291041 -0.2236708,-0.529166 -0.1509104,-0.529166 0.07276,0 0.2597335,0.238125 0.4154937,0.529166 0.1557602,0.291042 0.2236708,0.529167 0.1509104,0.529167 -0.07276,0 -0.2597335,-0.238125 -0.4154937,-0.529167 z m -3.9687499,-6.879166 c -0.1557602,-0.291042 -0.2236708,-0.529167 -0.1509104,-0.529167 0.07276,0 0.2597335,0.238125 0.4154937,0.529167 0.1557602,0.291041 0.2236708,0.529166 0.1509104,0.529166 -0.07276,0 -0.2597335,-0.238125 -0.4154937,-0.529166 z m -6.8791665,-11.906253 c -0.15576,-0.29104 -0.223671,-0.52916 -0.15091,-0.52916 0.07276,0 0.259733,0.23812 0.415493,0.52916 0.15576,0.29104 0.223671,0.52917 0.150911,0.52917 -0.07276,0 -0.259734,-0.23813 -0.415494,-0.52917 z"
           id="path577" /><path
           style="fill:#deddda;fill-opacity:1;stroke-width:0.264583"
           d="M 32.660977,-28.169244 C 7.3714704,-71.993566 -13.68296,-108.47544 -14.126645,-109.24007 l -0.806701,-1.39024 28.772876,0.0673 28.772876,0.0673 17.947166,31.088546 c 9.870942,17.098697 18.065329,31.08854 18.209744,31.08854 0.144417,0 8.337118,-13.989843 18.206,-31.08854 l 17.943424,-31.088546 28.78128,-0.0673 28.78128,-0.0673 -0.5214,0.86107 c -0.28677,0.47359 -21.26633,36.817949 -46.62124,80.765239 C 99.983755,14.943289 79.104522,51.03768 78.940366,51.205753 78.717264,51.434184 67.031725,31.392011 32.660977,-28.169244 Z"
           id="path575" /></g></g></g></svg>
