<?xml version="1.0" encoding="UTF-8" standalone="no"?>
<!-- Created with Inkscape (http://www.inkscape.org/) -->

<svg
   width="30.953611mm"
   height="31.643547mm"
   viewBox="0 0 30.953612 31.643546"
   version="1.1"
   id="svg5"
   xml:space="preserve"
   inkscape:version="1.2.1 (9c6d41e410, 2022-07-14)"
   sodipodi:docname="leoca.svg"
   xmlns:inkscape="http://www.inkscape.org/namespaces/inkscape"
   xmlns:sodipodi="http://sodipodi.sourceforge.net/DTD/sodipodi-0.dtd"
   xmlns="http://www.w3.org/2000/svg"
   xmlns:svg="http://www.w3.org/2000/svg"><sodipodi:namedview
     id="namedview7"
     pagecolor="#ffffff"
     bordercolor="#000000"
     borderopacity="0.25"
     inkscape:showpageshadow="2"
     inkscape:pageopacity="0.0"
     inkscape:pagecheckerboard="0"
     inkscape:deskcolor="#d1d1d1"
     inkscape:document-units="mm"
     showgrid="false"
     inkscape:zoom="0.70710678"
     inkscape:cx="193.74726"
     inkscape:cy="-227.68838"
     inkscape:window-width="1920"
     inkscape:window-height="1017"
     inkscape:window-x="-8"
     inkscape:window-y="-8"
     inkscape:window-maximized="1"
     inkscape:current-layer="layer1" /><defs
     id="defs2" /><g
     inkscape:label="Capa 1"
     inkscape:groupmode="layer"
     id="layer1"
     transform="translate(1243.4381,-15.66773)"><g
       id="g5691"><path
         id="path4822"
         style="color:#000000;fill:#34495e;stroke-width:2.72553"
         d="m -1220.8593,15.668196 c -1.0053,0.0097 -1.8886,0.14114 -2.5647,0.28112 l -1.6345,0.337964 c -0.6058,-0.122713 -1.2029,-0.260641 -1.8846,-0.271818 -1.5592,-0.02557 -2.8013,0.434635 -3.8443,1.068668 l -0.4764,-0.154512 c -1.0032,-0.326807 -2.8386,-0.844901 -4.838,-0.843876 -0.1951,1.01e-4 -0.3912,0.0047 -0.5896,0.01602 -1.5789,0.09054 -3.2595,0.573248 -4.4922,1.878955 -1.229,1.301938 -1.916,3.35304 -1.7715,6.244064 0.039,0.773235 0.2666,2.09312 0.6522,3.814237 0.385,1.718172 0.9253,3.73112 1.5957,5.5547 0.674,1.833624 1.3969,3.423568 2.4805,4.476729 0.5209,0.50635 1.208,0.908115 1.9906,0.874882 0.6262,-0.02659 1.1985,-0.389986 1.7069,-0.876949 l 0.7813,0.597896 c 0.074,0.06524 0.2131,0.157479 0.2847,0.196888 v 0.0021 c 0.2817,0.154142 0.5292,0.245358 0.8129,0.316259 0.5376,0.134564 1.4174,0.303252 2.4469,0.127124 0.5076,-0.08684 1.0615,-0.284676 1.5978,-0.609265 0,0.868253 -0.022,1.817346 0.01,2.564185 0.032,0.750283 0.079,1.41863 0.1427,1.973006 0.066,0.573613 0.073,0.844385 0.2832,1.368909 0.1908,0.476766 0.5001,1.269721 1.2696,1.918229 0.7203,0.606654 1.9934,0.990774 3.4727,0.673861 1.1794,-0.252887 2.1219,-0.657985 2.8009,-1.363741 0.6768,-0.703448 1.0215,-1.639636 1.2087,-2.724382 v -0.0021 c 0.2125,-1.23139 0.4783,-3.576843 0.6465,-5.128886 0.3166,0.05209 0.6247,0.119097 0.9787,0.115239 1.0625,-0.01168 2.1327,-0.175248 3.0468,-0.599447 0.7548,-0.350517 1.2442,-0.82195 1.4961,-1.05885 0.5956,-0.560264 1.0689,-1.202362 0.5286,-2.06189 -0.3617,-0.46302 -1.7669,-0.25843 -2.1125,-0.199988 -0.049,0.0083 -0.077,0.01395 -0.077,0.01395 l 5e-4,-0.001 c -1.0908,0.169046 -1.5729,0.06569 -1.8707,-0.0124 1.7172,-2.753573 2.9519,-5.735663 3.6251,-8.342126 0.3709,-1.435901 0.5764,-2.75011 0.5938,-3.878833 0.018,-1.152805 -0.018,-1.981619 -0.6858,-2.833936 -2.1127,-2.699641 -5.079,-3.431801 -7.3886,-3.450952 -0.079,-6.53e-4 -0.1523,-5.99e-4 -0.2192,0 z m 0.01,0.454753 h 10e-4 c 2.2683,-0.02107 5.1678,0.617176 7.2481,3.275252 0.4678,0.597885 0.6067,1.47181 0.5897,2.547131 -0.017,1.075322 -0.2141,2.363067 -0.5778,3.771346 -0.7059,2.733129 -2.0353,5.918815 -3.9124,8.774658 0.047,0.03434 0.1126,0.07276 0.2077,0.112138 0.3911,0.161894 1.2857,0.301873 3.0686,-0.06615 0.4487,-0.09266 0.7781,-0.158362 1.1193,0.101286 0.1711,0.129826 0.264,0.388335 0.246,0.576192 -0.018,0.187861 -0.092,0.325725 -0.1778,0.45527 -0.3435,0.518174 -1.0234,1.007287 -1.8944,1.4118 -0.7726,0.358609 -1.8787,0.547822 -2.8614,0.558622 -0.4914,0.0054 -0.9446,-0.0342 -1.3301,-0.153996 0,-0.0015 -0.01,-0.0032 -0.014,-0.0046 -0.1644,1.524014 -0.5144,4.3353 -0.724,5.549532 -0.1795,1.040945 -0.4912,1.866231 -1.0877,2.486153 -0.5964,0.619917 -1.4366,0.993529 -2.5704,1.236617 -1.4025,0.300452 -2.4268,-0.02286 -3.0861,-0.578259 -0.6594,-0.555407 -0.9601,-1.289415 -1.1405,-1.740463 -0.1249,-0.311909 -0.1897,-0.713806 -0.2517,-1.251603 -0.062,-0.537793 -0.1086,-1.197583 -0.1406,-1.939933 -0.044,-1.013276 -0.059,-2.183118 -0.049,-3.399793 -0.661,0.597242 -1.4019,0.899578 -2.0882,1.016993 -0.9309,0.15925 -1.7635,0.0033 -2.2598,-0.120923 -0.2315,-0.05787 -0.4759,-0.148923 -0.7033,-0.273369 -0.2275,-0.124446 -0.4485,-0.265607 -0.5959,-0.538985 -0.076,-0.136688 -0.1189,-0.326564 -0.076,-0.513664 0.043,-0.187094 0.161,-0.339798 0.295,-0.449068 0.268,-0.218542 0.6209,-0.339299 1.156,-0.449585 0.9707,-0.199877 1.3099,-0.336069 1.5178,-0.501778 0.1903,-0.151585 0.3641,-0.431225 0.7891,-0.920874 0,-0.01676 0.01,-0.03306 0.01,-0.04961 -0.6509,-0.007 -1.272,-0.169561 -1.8283,-0.454753 -0.2534,0.26739 -1.3211,1.404475 -2.5445,2.87631 -0.5295,0.6365 -1.1174,0.998981 -1.7364,1.025261 -0.6189,0.02628 -1.181,-0.2838 -1.6562,-0.745691 -0.9504,-0.923788 -1.7092,-2.511301 -2.3693,-4.306714 -0.66,-1.795413 -1.1966,-3.795348 -1.5782,-5.498372 -0.3816,-1.703029 -0.6073,-3.076754 -0.6403,-3.738274 -0.1408,-2.814916 0.5166,-4.711397 1.6464,-5.908166 1.1297,-1.196769 2.678,-1.649788 4.1873,-1.736328 2.5556,-0.14654 5.0884,0.720214 5.8074,0.99012 1.003,-0.681367 2.2964,-1.104417 3.9094,-1.07797 0.8188,0.01342 1.5774,0.11836 2.2789,0.293005 0.01,-0.0041 0.011,-0.0077 0.018,-0.0098 0.013,-0.0057 0.024,-0.0092 0.035,-0.01344 0.044,-0.01669 0.1026,-0.03723 0.1876,-0.0646 0.1708,-0.05473 0.4363,-0.13116 0.7772,-0.21084 0.6818,-0.159365 1.6668,-0.32949 2.8009,-0.34003 z m -3.6458,0.597896 c 0,0 -0.051,0.0037 -0.062,0.0057 -0.011,0.0021 -0.023,0.0045 -0.023,0.0057 -0.016,0.0046 -0.016,0.0046 -0.016,0.0041 a 0.45425549,0.45425549 0 0 1 0.1638,0.0155 c -0.017,-0.0084 -0.062,-0.031 -0.062,-0.03101 z m 0.3504,0.170015 a 0.45425549,0.45425549 0 0 1 0.02,0.02274 c 0.01,0.0016 0.01,0.003 0.015,0.0047 v -0.0098 c 0,9e-6 -0.024,-0.01248 -0.036,-0.01757 z m 3.5021,0.140043 c -0.066,-5.5e-4 -0.1324,-9.1e-5 -0.1979,5.17e-4 -0.8954,0.0083 -1.697,0.125627 -2.3058,0.251664 1.6877,0.745273 2.9564,1.902124 3.8535,3.04891 0.7377,0.943074 1.2329,1.87912 1.5311,2.595707 0.1491,0.358296 0.2495,0.660158 0.3065,0.894519 0.029,0.11718 0.043,0.213072 0.053,0.318327 0,0.05263 0.01,0.105017 -0.016,0.195337 -7e-4,0.003 0,0.0067 0,0.0098 0.043,1.193313 -0.2602,1.990409 -0.2961,3.124874 -0.027,0.819187 0.1842,1.78194 0.2362,2.832386 0.049,0.987548 -0.064,2.072743 -0.7065,3.138309 0.053,0.06546 0.1069,0.13037 0.1587,0.19327 1.6935,-2.669622 2.9087,-5.626479 3.5589,-8.144206 0.3502,-1.35551 0.5359,-2.585838 0.5509,-3.558955 0.015,-0.973118 -0.1665,-1.678129 -0.3969,-1.97249 -1.8143,-2.318427 -4.2698,-2.91093 -6.3272,-2.927987 z m -6.32,0.347783 c -1.6802,-0.02755 -2.873,0.462588 -3.7698,1.209228 -0.8967,0.746644 -1.4969,1.768394 -1.8924,2.816366 -0.46,1.218613 -0.6346,2.449295 -0.7008,3.268534 0.01,-0.0049 0.017,-0.0096 0.025,-0.01447 0.4826,-0.268771 1.1153,-0.542584 1.7936,-0.699182 0.6787,-0.156562 1.4097,-0.205408 2.0728,0.05064 0.663,0.256045 1.2114,0.862311 1.4097,1.779219 0.9519,4.401996 -0.296,6.039161 -0.7555,7.275525 -0.1925,0.518986 -0.3596,0.980129 -0.4547,1.365291 0.06,-0.01565 0.1204,-0.02633 0.1798,-0.03152 0.3245,-0.02834 0.5791,0.08207 0.7302,0.144694 0.4635,0.191275 0.783,0.596038 0.9534,1.056783 0.047,0.126422 0.082,0.260774 0.1008,0.398942 a 0.45425549,0.45425549 0 0 1 0.022,0.153479 c -0.05,1.794917 -0.044,3.597559 0.018,5.052922 0.031,0.727679 0.077,1.370049 0.1349,1.87482 0.058,0.504776 0.1412,0.887822 0.1932,1.017509 0.1729,0.432163 0.4256,0.997789 0.8827,1.382862 0.4572,0.385068 1.1131,0.641592 2.3109,0.384989 1.0384,-0.222641 1.6777,-0.532191 2.1053,-0.976684 0.4277,-0.444499 0.684,-1.063342 0.8475,-2.011764 0.2425,-1.404516 0.7265,-5.449028 0.7938,-6.284371 -0.031,-0.597266 0.057,-1.052931 0.247,-1.400948 0.1926,-0.352943 0.49,-0.565548 0.7477,-0.681612 0.1501,-0.06757 0.2244,-0.08143 0.3323,-0.111621 -0.071,-0.11468 -0.1233,-0.211526 -0.3147,-0.453202 -0.275,-0.347339 -0.6256,-0.820458 -0.9002,-1.486215 -0.029,-0.07106 -0.1678,-0.329291 -0.3478,-0.652156 -0.18,-0.322871 -0.4067,-0.729335 -0.6444,-1.185458 -0.4753,-0.912241 -0.9933,-2.019224 -1.2619,-3.095935 -0.2685,-1.076712 -0.3082,-2.189865 0.3793,-2.976562 0.6009,-0.687498 1.7392,-0.89908 3.3047,-0.751892 -0.048,-0.155312 -0.088,-0.298603 -0.1798,-0.519348 -0.2685,-0.645378 -0.729,-1.516667 -1.4082,-2.384868 -1.3582,-1.736401 -3.5572,-3.458287 -6.9551,-3.513997 z m -9.1354,0.06976 c -0.1712,8.8e-5 -0.3425,0.0047 -0.5132,0.01447 -1.3654,0.0783 -2.6564,0.474714 -3.5801,1.453142 -0.9236,0.978427 -1.5332,2.584059 -1.4004,5.23999 0.025,0.502364 0.2462,1.910843 0.6211,3.584277 0.375,1.67344 0.905,3.642775 1.5446,5.382618 0.6396,1.739837 1.4136,3.254344 2.1508,3.970817 0.3685,0.358231 0.6897,0.502839 0.9824,0.490409 0.2927,-0.01243 0.6453,-0.181419 1.0759,-0.699182 1.0636,-1.27952 2.0489,-2.350489 2.4732,-2.803963 -1.1538,-0.948997 -1.8445,-2.503643 -1.604,-4.223515 0.1426,-0.998181 0.1586,-1.93321 0.1426,-2.671672 -0.016,-0.738463 -0.07,-1.242477 -0.07,-1.53324 a 0.45430092,0.45430092 0 0 1 0,-0.0021 c 10e-5,-0.01395 3e-4,-0.0274 0,-0.04031 0,-0.270914 -0.011,-2.379667 0.7994,-4.526339 0.3805,-1.007953 0.9452,-2.029946 1.7911,-2.859257 -0.9274,-0.302101 -2.662,-0.777079 -4.4147,-0.77618 z m 16.7607,7.140133 c -0.9169,0.01222 -1.4322,0.249774 -1.7017,0.558105 -0.3833,0.438517 -0.4207,1.210622 -0.1839,2.160075 0.2368,0.949452 0.7272,2.011128 1.1875,2.894397 0.2301,0.441637 0.4525,0.838404 0.633,1.162203 0.1805,0.3238 0.3118,0.554257 0.3928,0.749825 0.075,0.182504 0.1565,0.345093 0.2408,0.494543 0.3579,-0.751258 0.4184,-1.491143 0.3803,-2.260327 -0.047,-0.949507 -0.2661,-1.921216 -0.2341,-2.905765 0.037,-1.155391 0.2808,-1.895242 0.2987,-2.788978 -0.303,-0.03774 -0.5777,-0.05885 -0.8248,-0.06356 -0.065,-0.0012 -0.1274,-0.0013 -0.1886,-5.16e-4 z m -11.13,0.155029 c -0.2631,1.23e-4 -0.547,0.03632 -0.8331,0.102319 -0.5723,0.131997 -1.1461,0.37547 -1.5585,0.605131 -0.2063,0.114833 -0.3749,0.226968 -0.4729,0.306958 -0.015,0.01286 -0.015,0.01454 -0.027,0.02532 0.01,0.201565 0.047,0.67855 0.062,1.382861 0.017,0.770961 0,1.752806 -0.1525,2.816366 -0.3323,2.376617 1.4552,4.308991 3.498,4.199227 0.1151,-0.470588 0.1337,-0.930312 0.3204,-1.433505 0.5495,-1.478706 1.6293,-2.557507 0.7188,-6.768062 -0.1487,-0.687592 -0.4424,-0.966511 -0.8475,-1.122929 -0.2025,-0.07821 -0.4449,-0.113811 -0.7079,-0.113688 z m 10.7357,0.3514 c 0.2697,8.62e-4 0.4722,0.07355 0.4889,0.189135 v 5.17e-4 c 0.02,0.14899 -0.2724,0.544969 -0.6542,0.597897 -0.3818,0.05321 -0.7083,-0.256678 -0.7292,-0.405144 -0.02,-0.148611 0.2724,-0.312146 0.6542,-0.365352 0.084,-0.01164 0.1647,-0.0173 0.2403,-0.01705 z m -10.6417,0.302824 c 0.076,-2.37e-4 0.1563,0.0054 0.2398,0.01705 0.3823,0.0532 0.6752,0.21674 0.6542,0.365352 -0.021,0.148465 -0.3471,0.458343 -0.7286,0.405143 -0.017,-0.0023 -0.033,-0.0062 -0.049,-0.0098 -0.066,-0.01438 -0.1282,-0.03847 -0.1866,-0.06925 h -5e-4 c -0.2591,-0.136808 -0.4344,-0.402882 -0.418,-0.518832 0.016,-0.115818 0.2188,-0.188808 0.4888,-0.189652 z m 12.3248,9.750826 c -0.014,0.0049 -0.032,0.02237 -0.045,0.02687 -0.1993,0.07025 -0.3631,0.100514 -0.5002,0.162264 -0.1371,0.06175 -0.234,0.1288 -0.322,0.289388 -0.084,0.154238 -0.1502,0.441659 -0.1312,0.902271 0.026,0.01949 0.086,0.05657 0.1937,0.08992 0.2322,0.07216 0.6193,0.115804 1.0506,0.111104 0.8626,-0.0095 1.9238,-0.21091 2.4882,-0.472839 0.5665,-0.26308 0.8658,-0.559435 1.1369,-0.814421 -1.7788,0.348452 -2.8309,0.261588 -3.4628,0 -0.1974,-0.08173 -0.2858,-0.191559 -0.4083,-0.294555 z m -13.8327,0.01602 c 0.285,0.123196 0.6153,0.112669 0.924,0.175183 -0.06,0.07378 -0.2182,0.277592 -0.2693,0.318327 -0.123,0.098 -0.3687,0.21715 -1.3244,0.413928 -0.094,0.0193 -0.1025,0.04156 -0.1892,0.06666 0.2795,-0.310115 0.691,-0.793703 0.8589,-0.974101 z m 2.9347,0.13746 c -0.01,-2.57e-4 -0.019,-2.71e-4 -0.028,5.16e-4 v 0 c -0.072,0.0063 -0.1766,0.02976 -0.3767,0.253732 -0.4712,0.52634 -0.6352,0.858908 -1.0237,1.168404 -0.3884,0.309496 -0.8928,0.474211 -1.9001,0.681612 -0.3669,0.07562 -0.4966,0.149946 -0.6036,0.206706 0.035,0.02679 0.028,0.03041 0.076,0.05684 0.1463,0.08005 0.3361,0.151612 0.4883,0.189652 0.4342,0.108669 1.1448,0.232345 1.8867,0.10542 0.7419,-0.126925 1.513,-0.481805 2.172,-1.404565 0.113,-0.158822 0.126,-0.39434 0.033,-0.646472 -0.093,-0.252136 -0.2997,-0.470254 -0.4475,-0.531234 -0.125,-0.05178 -0.2079,-0.07882 -0.2749,-0.08062 z" /><path
         id="path3911"
         style="clip-rule:nonzero;fill:#3c79ab;fill-opacity:1;fill-rule:nonzero;stroke:none;stroke-width:0.908511;stroke-linecap:round;stroke-linejoin:round;stroke-miterlimit:4"
         d="m -1220.6448,17.030903 c -0.066,-5.5e-4 -0.1324,-9.1e-5 -0.1979,5.17e-4 -0.8954,0.0083 -1.697,0.125626 -2.3058,0.251664 1.6877,0.745273 2.9564,1.902123 3.8535,3.04891 0.7377,0.943075 1.2329,1.879119 1.5311,2.595707 0.1491,0.358296 0.2495,0.660158 0.3065,0.894519 0.029,0.11718 0.043,0.213072 0.053,0.318327 0,0.05263 0.01,0.105017 -0.016,0.195337 -7e-4,0.003 0,0.0067 0,0.0098 0.043,1.193314 -0.2602,1.990408 -0.2961,3.124874 -0.027,0.819187 0.1842,1.781939 0.2362,2.832386 0.049,0.987549 -0.064,2.072742 -0.7065,3.138309 0.053,0.06546 0.1069,0.13037 0.1587,0.19327 1.6935,-2.669625 2.9087,-5.626477 3.5589,-8.144206 0.3502,-1.355512 0.5359,-2.585837 0.5509,-3.558955 0.015,-0.973119 -0.1665,-1.678129 -0.3969,-1.97249 -1.8143,-2.318429 -4.2698,-2.91093 -6.3272,-2.927987 z m -6.32,0.347783 c -1.6802,-0.02755 -2.873,0.462587 -3.7698,1.209228 -0.8967,0.746644 -1.4969,1.768393 -1.8924,2.816366 -0.46,1.218614 -0.6346,2.449294 -0.7008,3.268534 0.01,-0.0049 0.017,-0.0096 0.025,-0.01447 0.4826,-0.268771 1.1153,-0.542584 1.7936,-0.699182 0.6787,-0.156562 1.4097,-0.205408 2.0728,0.05064 0.663,0.256046 1.2114,0.86231 1.4097,1.779219 0.9519,4.402 -0.296,6.03916 -0.7555,7.275525 -0.1925,0.518986 -0.3596,0.980128 -0.4547,1.365291 0.06,-0.01565 0.1204,-0.02633 0.1798,-0.03152 0.3245,-0.02834 0.5791,0.08207 0.7302,0.144694 0.4635,0.191275 0.783,0.596038 0.9534,1.056783 0.047,0.126422 0.082,0.260774 0.1008,0.398942 a 0.45425549,0.45425549 0 0 1 0.022,0.153479 c -0.05,1.794919 -0.044,3.597558 0.018,5.052922 0.031,0.72768 0.077,1.370048 0.1349,1.87482 0.058,0.504776 0.1412,0.887821 0.1932,1.017509 0.1729,0.432163 0.4256,0.997789 0.8827,1.382862 0.4572,0.385069 1.1131,0.641592 2.3109,0.384989 1.0384,-0.222641 1.6777,-0.53219 2.1053,-0.976684 0.4277,-0.444499 0.684,-1.063341 0.8475,-2.011764 0.2425,-1.404518 0.7265,-5.449027 0.7938,-6.284371 -0.031,-0.597267 0.057,-1.052931 0.247,-1.400948 0.1926,-0.352943 0.49,-0.565548 0.7477,-0.681612 0.1501,-0.06757 0.2244,-0.08143 0.3323,-0.111621 -0.071,-0.11468 -0.1233,-0.211525 -0.3147,-0.453202 -0.275,-0.347339 -0.6256,-0.820458 -0.9002,-1.486215 -0.029,-0.07106 -0.1678,-0.32929 -0.3478,-0.652156 -0.18,-0.322871 -0.4067,-0.729335 -0.6444,-1.185458 -0.4753,-0.912242 -0.9933,-2.019223 -1.2619,-3.095935 -0.2685,-1.076713 -0.3082,-2.189864 0.3793,-2.976562 0.6009,-0.687499 1.7392,-0.89908 3.3047,-0.751892 -0.048,-0.155312 -0.088,-0.298602 -0.1798,-0.519348 -0.2685,-0.645378 -0.729,-1.516666 -1.4082,-2.384868 -1.3582,-1.736403 -3.5572,-3.458287 -6.9551,-3.513997 z m -9.1354,0.06976 c -0.1712,8.8e-5 -0.3425,0.0047 -0.5132,0.01447 -1.3654,0.0783 -2.6564,0.474713 -3.5801,1.453142 -0.9236,0.978428 -1.5332,2.584056 -1.4004,5.23999 0.025,0.502365 0.2462,1.910841 0.6211,3.584277 0.375,1.673441 0.905,3.642774 1.5446,5.382618 0.6396,1.739839 1.4136,3.254344 2.1508,3.970817 0.3685,0.358232 0.6897,0.502839 0.9824,0.490409 0.2927,-0.01243 0.6453,-0.181418 1.0759,-0.699182 1.0636,-1.279521 2.0489,-2.350488 2.4732,-2.803963 -1.1538,-0.948998 -1.8445,-2.503641 -1.604,-4.223515 0.1426,-0.998182 0.1586,-1.933209 0.1426,-2.671672 -0.016,-0.738464 -0.07,-1.242477 -0.07,-1.53324 a 0.45430092,0.45430092 0 0 1 0,-0.0021 c 10e-5,-0.01395 3e-4,-0.0274 0,-0.04031 0,-0.270914 -0.011,-2.379665 0.7994,-4.526339 0.3805,-1.007954 0.9452,-2.029945 1.7911,-2.859257 -0.9274,-0.302101 -2.662,-0.777079 -4.4147,-0.77618 z m 16.7607,7.140133 c -0.9169,0.01222 -1.4322,0.249774 -1.7017,0.558105 -0.3833,0.438517 -0.4207,1.210621 -0.1839,2.160075 0.2368,0.949453 0.7272,2.011127 1.1875,2.894397 0.2301,0.441637 0.4525,0.838404 0.633,1.162203 0.1805,0.3238 0.3118,0.554257 0.3928,0.749825 0.075,0.182504 0.1565,0.345092 0.2408,0.494543 0.3579,-0.751259 0.4184,-1.491143 0.3803,-2.260327 -0.047,-0.949508 -0.2661,-1.921215 -0.2341,-2.905765 0.037,-1.155392 0.2808,-1.895242 0.2987,-2.788978 -0.303,-0.03774 -0.5777,-0.05885 -0.8248,-0.06356 -0.065,-0.0012 -0.1274,-0.0013 -0.1886,-5.16e-4 z m -11.13,0.155029 c -0.2631,1.23e-4 -0.547,0.03632 -0.8331,0.102319 -0.5723,0.131997 -1.1461,0.375469 -1.5585,0.605131 -0.2063,0.114833 -0.3749,0.226968 -0.4729,0.306958 -0.015,0.01286 -0.015,0.01454 -0.027,0.02532 0.01,0.201565 0.047,0.678549 0.062,1.382861 0.017,0.770962 0,1.752805 -0.1525,2.816366 -0.3323,2.37662 1.4552,4.308992 3.498,4.199227 0.1151,-0.470588 0.1337,-0.930312 0.3204,-1.433505 0.5495,-1.478708 1.6293,-2.557503 0.7188,-6.768062 -0.1487,-0.687593 -0.4424,-0.966511 -0.8475,-1.122929 -0.2025,-0.07821 -0.4449,-0.113811 -0.7079,-0.113688 z m 10.7357,0.3514 c 0.2697,8.62e-4 0.4722,0.07354 0.4889,0.189135 v 5.17e-4 c 0.02,0.14899 -0.2724,0.544969 -0.6542,0.597897 -0.3818,0.05321 -0.7083,-0.256678 -0.7292,-0.405144 -0.02,-0.148611 0.2724,-0.312146 0.6542,-0.365352 0.084,-0.01164 0.1647,-0.0173 0.2403,-0.01705 z m -10.6417,0.302824 c 0.076,-2.37e-4 0.1563,0.0054 0.2398,0.01705 0.3823,0.0532 0.6752,0.21674 0.6542,0.365352 -0.021,0.148465 -0.3471,0.458343 -0.7286,0.405143 -0.3821,-0.05298 -0.6752,-0.449285 -0.6542,-0.597896 0.016,-0.115818 0.2188,-0.188808 0.4888,-0.189652 z m 12.3248,9.750826 c -0.014,0.0049 -0.032,0.02237 -0.045,0.02687 -0.1993,0.07025 -0.3631,0.100514 -0.5002,0.162264 -0.1371,0.06175 -0.234,0.128799 -0.322,0.289388 -0.084,0.154238 -0.1502,0.441659 -0.1312,0.902271 0.026,0.01949 0.086,0.05657 0.1937,0.08992 0.2322,0.07216 0.6193,0.115804 1.0506,0.111104 0.8626,-0.0095 1.9238,-0.21091 2.4882,-0.472839 0.5665,-0.26308 0.8658,-0.559435 1.1369,-0.814421 -1.7788,0.348452 -2.8309,0.261588 -3.4628,0 -0.1974,-0.08173 -0.2858,-0.191559 -0.4083,-0.294555 z m -10.898,0.153479 c -0.01,-2.57e-4 -0.019,-2.71e-4 -0.028,5.16e-4 v 0 c -0.072,0.0063 -0.1766,0.02976 -0.3767,0.253732 -0.4712,0.526341 -0.6352,0.858908 -1.0237,1.168404 -0.3884,0.309496 -0.8928,0.474211 -1.9001,0.681612 -0.3669,0.07562 -0.4966,0.149946 -0.6036,0.206706 0.035,0.02679 0.028,0.03041 0.076,0.05684 0.1463,0.08005 0.3361,0.151612 0.4883,0.189652 0.4342,0.108669 1.1448,0.232345 1.8867,0.10542 0.7419,-0.126925 1.513,-0.481804 2.172,-1.404565 0.113,-0.158822 0.126,-0.394339 0.033,-0.646472 -0.093,-0.252136 -0.2997,-0.470254 -0.4475,-0.531234 -0.125,-0.05178 -0.2079,-0.07882 -0.2749,-0.08062 z" /><path
         style="clip-rule:nonzero;fill:none;fill-rule:nonzero;stroke:#ffffff;stroke-width:0.218653;stroke-linecap:round;stroke-linejoin:round;stroke-miterlimit:4"
         d="M -1243.4381,19.649625"
         id="path3931" /></g></g></svg>
